<svg width="545" height="399" viewBox="0 0 545 399" fill="none" xmlns="http://www.w3.org/2000/svg">
<path opacity="0.5" d="M271.435 397.363C346.352 397.363 407.085 387.155 407.085 374.564C407.085 361.972 346.352 351.764 271.435 351.764C196.518 351.764 135.785 361.972 135.785 374.564C135.785 387.155 196.518 397.363 271.435 397.363Z" fill="#DEE3F3"/>
<g opacity="0.45">
<path opacity="0.45" d="M238.854 137.309C238.855 137.564 238.873 137.818 238.908 138.071C238.873 137.818 238.855 137.564 238.854 137.309Z" fill="#0788E9"/>
<path opacity="0.45" d="M307.164 120.932C307.174 121 307.187 121.068 307.195 121.136C307.187 121.067 307.174 121 307.164 120.932Z" fill="#0788E9"/>
<path opacity="0.45" d="M307.022 120.257C307.041 120.328 307.06 120.399 307.077 120.471C307.06 120.399 307.041 120.328 307.022 120.257Z" fill="#0788E9"/>
<path opacity="0.45" d="M307.093 138.591C307.067 138.708 307.037 138.823 307.004 138.937C307.037 138.823 307.067 138.708 307.093 138.591Z" fill="#0788E9"/>
<path opacity="0.45" d="M307.188 138.031C307.173 138.156 307.155 138.279 307.132 138.401C307.155 138.279 307.173 138.156 307.188 138.031Z" fill="#0788E9"/>
<path opacity="0.45" d="M242.013 142.514C241.558 142.276 241.136 141.979 240.758 141.631C241.136 141.979 241.558 142.276 242.013 142.514Z" fill="#0788E9"/>
<path opacity="0.45" d="M240.712 141.589C240.534 141.422 240.367 141.245 240.211 141.058C240.367 141.245 240.534 141.422 240.712 141.589Z" fill="#0788E9"/>
<path opacity="0.45" d="M341.516 253.675C341.447 253.442 341.364 253.214 341.267 252.992C341.364 253.214 341.447 253.442 341.516 253.675Z" fill="#0788E9"/>
<path opacity="0.45" d="M338.598 250.139C338.83 250.26 339.053 250.397 339.267 250.547C339.053 250.397 338.83 250.26 338.598 250.139Z" fill="#0788E9"/>
<path opacity="0.45" d="M339.911 251.075C340.269 251.413 340.584 251.794 340.847 252.21C340.584 251.794 340.269 251.413 339.911 251.075Z" fill="#0788E9"/>
<path opacity="0.45" d="M339.287 250.562C339.482 250.702 339.667 250.852 339.844 251.014C339.667 250.852 339.482 250.702 339.287 250.562Z" fill="#0788E9"/>
<path opacity="0.45" d="M341.216 252.888C341.128 252.698 341.03 252.513 340.922 252.333C341.03 252.513 341.128 252.698 341.216 252.888Z" fill="#0788E9"/>
<path opacity="0.45" d="M341.678 254.399C341.646 254.203 341.604 254.01 341.553 253.818C341.604 254.01 341.646 254.203 341.678 254.399Z" fill="#0788E9"/>
<path opacity="0.45" d="M518.47 222.237H484.742C485.521 221.698 486.157 220.977 486.596 220.137C487.036 219.298 487.265 218.364 487.265 217.416V201.922C487.265 201.151 487.113 200.387 486.818 199.675C486.524 198.962 486.091 198.315 485.546 197.77C485.002 197.224 484.355 196.792 483.643 196.497C482.931 196.202 482.168 196.05 481.397 196.05H442.575C443.761 195.671 444.795 194.925 445.53 193.92C446.264 192.914 446.66 191.701 446.66 190.456V174.962C446.66 174.014 446.431 173.08 445.991 172.241C445.552 171.401 444.915 170.68 444.136 170.141H481.397C482.168 170.141 482.931 169.989 483.643 169.694C484.355 169.399 485.002 168.966 485.546 168.421C486.091 167.876 486.524 167.228 486.818 166.516C487.113 165.803 487.265 165.04 487.265 164.269V148.775C487.265 148.004 487.113 147.24 486.818 146.528C486.524 145.815 486.091 145.168 485.546 144.623C485.002 144.077 484.355 143.645 483.643 143.35C482.931 143.055 482.168 142.903 481.397 142.903H439.92C441.105 142.524 442.14 141.778 442.874 140.773C443.608 139.767 444.004 138.554 444.004 137.309V121.815C444.004 120.867 443.775 119.933 443.336 119.094C442.896 118.254 442.26 117.533 441.481 116.994H481.397C482.168 116.994 482.931 116.842 483.643 116.547C484.355 116.252 485.002 115.819 485.546 115.274C486.091 114.729 486.524 114.081 486.818 113.369C487.113 112.656 487.265 111.893 487.265 111.122V95.6276C487.265 94.8565 487.113 94.093 486.818 93.3806C486.524 92.6682 486.091 92.0209 485.546 91.4757C485.002 90.9304 484.355 90.4979 483.643 90.2028C482.931 89.9077 482.168 89.7558 481.397 89.7558H460.501C461.687 89.3772 462.721 88.6313 463.455 87.6258C464.19 86.6204 464.585 85.4074 464.586 84.1622V68.668C464.586 67.8969 464.434 67.1333 464.139 66.4209C463.844 65.7085 463.412 65.0612 462.867 64.5159C462.322 63.9707 461.675 63.5382 460.963 63.2431C460.251 62.948 459.488 62.7961 458.717 62.7961H402.07C401.3 62.7961 400.537 62.948 399.825 63.2431C399.113 63.5382 398.466 63.9707 397.921 64.5159C397.376 65.0612 396.944 65.7085 396.649 66.4209C396.354 67.1333 396.202 67.8969 396.202 68.668C396.202 67.8969 396.05 67.1333 395.755 66.4209C395.461 65.7085 395.028 65.0612 394.483 64.5159C393.939 63.9707 393.292 63.5382 392.58 63.2431C391.868 62.948 391.105 62.7961 390.334 62.7961H333.687C332.569 62.7967 331.474 63.117 330.532 63.7194C329.59 64.3218 328.84 65.1811 328.369 66.1961C328.444 66.5726 328.482 66.9554 328.483 67.3393V82.8335C328.482 83.6863 328.295 84.5287 327.934 85.3013C328.198 86.6391 328.92 87.8429 329.975 88.7053H344.524C345.879 88.7035 347.193 89.1732 348.24 90.034H354.583C353.397 90.4127 352.363 91.1586 351.628 92.164C350.894 93.1694 350.499 94.3824 350.498 95.6276C350.497 95.2541 350.46 94.8816 350.389 94.5151C350.389 94.536 350.392 94.5562 350.392 94.5771V110.071C350.39 110.565 350.326 111.057 350.2 111.535C350.295 111.635 350.379 111.744 350.452 111.86C350.483 111.615 350.498 111.368 350.498 111.122C350.501 111.462 350.534 111.802 350.597 112.137C350.674 112.323 350.719 112.522 350.728 112.724C351.099 114.03 351.909 115.167 353.022 115.943H347.975C348.02 115.912 348.06 115.874 348.104 115.841C347.636 115.853 347.164 115.802 346.695 115.796C346.527 115.794 346.361 115.76 346.207 115.695C345.661 115.859 345.094 115.943 344.524 115.943L309.761 116.994C308.982 117.533 308.345 118.254 307.906 119.094C307.466 119.933 307.237 120.867 307.237 121.815V137.309C307.237 138.554 307.633 139.767 308.367 140.773C309.102 141.778 310.136 142.524 311.322 142.903L344.524 143.181C345.108 143.181 345.688 143.268 346.246 143.439C346.617 143.471 346.984 143.536 347.343 143.632C347.371 143.626 347.398 143.623 347.426 143.618C347.103 143.44 346.764 143.294 346.414 143.181H354.583C353.397 143.56 352.363 144.306 351.628 145.311C350.894 146.316 350.499 147.529 350.498 148.775C350.498 148.434 350.468 148.094 350.409 147.759C350.37 147.815 350.327 147.868 350.28 147.917C350.354 148.291 350.391 148.671 350.392 149.053V164.547C350.392 165.266 350.498 165.093 350.498 164.269C350.498 165.217 350.727 166.151 351.167 166.99C351.606 167.83 352.243 168.551 353.022 169.09L373.736 169.754C374.447 169.756 375.151 169.886 375.815 170.141H380.8C379.908 170.765 379.206 171.624 378.772 172.623C379.316 173.53 379.604 174.568 379.604 175.626V191.12C379.604 191.929 379.437 192.729 379.112 193.47C379.846 194.696 381.001 195.613 382.361 196.05H376.918C375.971 196.665 374.865 196.993 373.736 196.992H353.187C352.362 197.523 351.684 198.252 351.214 199.114C350.744 199.975 350.498 200.94 350.498 201.922C350.498 199.852 349.728 220.244 349.728 220.244C349.728 222.076 381.703 222.901 381.703 222.901C382.516 222.901 383.319 223.071 384.063 223.399C384.396 223.328 384.737 223.299 385.078 223.312C385.068 223.304 385.058 223.295 385.048 223.288H390.095C389.316 223.827 388.679 224.548 388.24 225.388C387.8 226.227 387.571 227.161 387.571 228.109C387.57 227.829 387.548 227.549 387.506 227.272C387.479 227.335 387.45 227.398 387.418 227.459C387.519 227.89 387.57 228.331 387.571 228.773V243.603C387.571 244.374 387.723 245.138 388.018 245.85C388.313 246.563 388.745 247.21 389.29 247.755C389.835 248.3 390.482 248.733 391.194 249.028C391.906 249.323 392.669 249.475 393.439 249.475H384.408C383.573 249.912 382.645 250.14 381.703 250.139H344.924C343.971 250.634 343.172 251.382 342.614 252.3C342.056 253.218 341.761 254.272 341.761 255.347V270.841C341.761 271.612 341.913 272.376 342.208 273.088C342.503 273.8 342.935 274.448 343.48 274.993C344.025 275.538 344.671 275.971 345.383 276.266C346.095 276.561 346.858 276.713 347.629 276.713H404.276C405.047 276.713 405.81 276.561 406.522 276.266C407.234 275.971 407.881 275.538 408.426 274.993C408.971 274.448 409.403 273.8 409.698 273.088C409.993 272.376 410.144 271.612 410.144 270.841C410.144 271.612 410.296 272.376 410.591 273.088C410.886 273.8 411.318 274.448 411.863 274.993C412.408 275.538 413.055 275.971 413.767 276.266C414.479 276.561 415.242 276.713 416.012 276.713H472.66C473.43 276.713 474.193 276.561 474.905 276.266C475.617 275.971 476.264 275.538 476.809 274.993C477.354 274.448 477.786 273.8 478.081 273.088C478.376 272.376 478.528 271.612 478.528 270.841V255.347C478.528 254.576 478.376 253.812 478.081 253.1C477.786 252.387 477.354 251.74 476.809 251.195C476.264 250.65 475.617 250.217 474.905 249.922C474.193 249.627 473.43 249.475 472.66 249.475H518.47C519.241 249.475 520.004 249.323 520.716 249.028C521.428 248.733 522.074 248.3 522.619 247.755C523.164 247.21 523.597 246.563 523.891 245.85C524.186 245.138 524.338 244.374 524.338 243.603V228.109C524.338 227.338 524.186 226.574 523.891 225.862C523.597 225.149 523.164 224.502 522.619 223.957C522.074 223.412 521.428 222.979 520.716 222.684C520.004 222.389 519.241 222.237 518.47 222.237ZM378.144 116.994C377.365 117.533 376.729 118.254 376.289 119.094C375.85 119.933 375.62 120.867 375.621 121.815C375.621 120.867 375.392 119.933 374.952 119.094C374.513 118.254 373.876 117.533 373.097 116.994H378.144ZM371.536 142.903C372.722 142.524 373.756 141.778 374.491 140.773C375.225 139.767 375.62 138.554 375.621 137.309C375.621 138.554 376.017 139.767 376.751 140.773C377.485 141.778 378.52 142.524 379.705 142.903H371.536ZM392.118 89.7558C393.303 89.3772 394.338 88.6313 395.072 87.6258C395.806 86.6204 396.202 85.4074 396.202 84.1622C396.202 85.4074 396.598 86.6204 397.332 87.6258C398.067 88.6313 399.101 89.3772 400.287 89.7558H392.118ZM410.144 255.347C410.144 254.576 409.993 253.812 409.698 253.1C409.403 252.387 408.971 251.74 408.426 251.195C407.881 250.65 407.234 250.217 406.522 249.922C405.81 249.627 405.047 249.475 404.276 249.475H416.012C415.242 249.475 414.479 249.627 413.767 249.922C413.055 250.217 412.408 250.65 411.863 251.195C411.318 251.74 410.886 252.387 410.591 253.1C410.296 253.812 410.144 254.576 410.144 255.347ZM416.358 222.237C417.137 221.698 417.774 220.977 418.213 220.137C418.652 219.298 418.882 218.364 418.882 217.416C418.881 218.364 419.111 219.298 419.55 220.137C419.99 220.977 420.626 221.698 421.405 222.237H416.358ZM418.882 201.922C418.881 200.676 418.486 199.463 417.751 198.458C417.017 197.453 415.983 196.707 414.797 196.328H422.966C421.781 196.707 420.746 197.453 420.012 198.458C419.278 199.463 418.882 200.676 418.882 201.922ZM416.358 169.09C417.137 168.551 417.774 167.83 418.213 166.99C418.652 166.151 418.882 165.217 418.882 164.269C418.881 165.217 419.111 166.151 419.55 166.99C419.99 167.83 420.626 168.551 421.405 169.09H416.358ZM418.882 148.775C418.881 147.529 418.486 146.316 417.751 145.311C417.017 144.306 415.983 143.56 414.797 143.181H422.966C421.781 143.56 420.746 144.306 420.012 145.311C419.278 146.316 418.882 147.529 418.882 148.775ZM416.358 115.943C417.137 115.404 417.774 114.683 418.213 113.843C418.652 113.004 418.882 112.07 418.882 111.122C418.881 112.07 419.111 113.004 419.55 113.843C419.99 114.683 420.626 115.404 421.405 115.943H416.358ZM418.882 95.6276C418.881 94.3824 418.486 93.1695 417.751 92.164C417.017 91.1586 415.983 90.4127 414.797 90.034H422.966C421.781 90.4127 420.746 91.1586 420.012 92.164C419.278 93.1695 418.882 94.3824 418.882 95.6276ZM458.478 223.288C457.699 223.827 457.063 224.548 456.623 225.388C456.184 226.227 455.954 227.161 455.955 228.109C455.955 227.161 455.726 226.227 455.286 225.388C454.847 224.548 454.21 223.827 453.431 223.288H458.478ZM450.087 249.475C450.857 249.475 451.62 249.323 452.332 249.028C453.044 248.733 453.691 248.3 454.236 247.755C454.781 247.21 455.213 246.563 455.508 245.85C455.803 245.138 455.955 244.374 455.955 243.603C455.955 244.374 456.106 245.138 456.401 245.85C456.696 246.563 457.128 247.21 457.673 247.755C458.218 248.3 458.865 248.733 459.577 249.028C460.289 249.323 461.052 249.475 461.823 249.475H450.087Z" fill="#0788E9"/>
<path opacity="0.45" d="M341.761 255.347C341.759 255.097 341.742 254.847 341.708 254.599C341.742 254.847 341.759 255.097 341.761 255.347Z" fill="#0788E9"/>
<path opacity="0.45" d="M307.237 137.309C307.237 137.495 307.226 137.679 307.209 137.86C307.226 137.679 307.237 137.495 307.237 137.309Z" fill="#0788E9"/>
<path opacity="0.45" d="M238.922 138.185C238.957 138.42 239.007 138.654 239.071 138.883C239.007 138.654 238.957 138.42 238.922 138.185Z" fill="#0788E9"/>
<path opacity="0.45" d="M173.252 172.806C173.155 172.719 173.07 172.619 173.002 172.508C172.917 172.356 172.861 172.19 172.835 172.018C172.821 172.421 172.827 172.824 172.853 173.226C173.031 173.787 173.123 174.373 173.126 174.962C173.129 174.389 173.215 173.82 173.383 173.273C173.33 173.14 173.289 173.003 173.26 172.862C173.256 172.843 173.256 172.825 173.252 172.806Z" fill="#0788E9"/>
<path opacity="0.45" d="M253.567 62.7961H196.92C196.149 62.7961 195.386 62.948 194.674 63.2431C193.962 63.5382 193.315 63.9707 192.77 64.516C192.226 65.0612 191.793 65.7085 191.498 66.4209C191.204 67.1333 191.052 67.8969 191.052 68.668C191.052 67.8969 190.9 67.1333 190.605 66.4209C190.31 65.7085 189.878 65.0612 189.333 64.516C188.788 63.9707 188.141 63.5382 187.429 63.2431C186.717 62.948 185.954 62.7961 185.184 62.7961H128.536C127.766 62.7961 127.003 62.948 126.291 63.2431C125.579 63.5382 124.932 63.9707 124.387 64.516C123.842 65.0612 123.41 65.7085 123.115 66.4209C122.82 67.1333 122.668 67.8969 122.668 68.668V84.1622C122.669 85.4074 123.064 86.6204 123.799 87.6258C124.533 88.6313 125.567 89.3772 126.753 89.7558H82.8326C82.062 89.7558 81.2989 89.9077 80.587 90.2028C79.875 90.4979 79.2281 90.9304 78.6832 91.4756C78.1383 92.0209 77.7061 92.6682 77.4112 93.3806C77.1163 94.093 76.9645 94.8565 76.9645 95.6276V111.122C76.9642 112.07 77.1936 113.004 77.6331 113.843C78.0727 114.683 78.7091 115.404 79.4879 115.943H39.5716C38.8009 115.943 38.0379 116.095 37.3259 116.39C36.614 116.685 35.9671 117.118 35.4222 117.663C34.8773 118.208 34.445 118.856 34.1501 119.568C33.8552 120.28 33.7034 121.044 33.7034 121.815V137.309C33.7034 138.08 33.8552 138.844 34.1501 139.556C34.445 140.269 34.8773 140.916 35.4222 141.461C35.9671 142.006 36.614 142.439 37.3259 142.734C38.0379 143.029 38.8009 143.181 39.5716 143.181H81.0489C79.8634 143.56 78.8288 144.306 78.0947 145.311C77.3605 146.316 76.9647 147.529 76.9645 148.775V164.269C76.9642 165.217 77.1937 166.151 77.6332 166.99C78.0727 167.83 78.7091 168.551 79.4879 169.09H42.2272C41.4566 169.09 40.6935 169.242 39.9816 169.537C39.2696 169.832 38.6227 170.265 38.0778 170.81C37.5329 171.355 37.1007 172.003 36.8058 172.715C36.5109 173.427 36.3591 174.191 36.3591 174.962V190.456C36.3591 191.227 36.5109 191.991 36.8058 192.703C37.1007 193.416 37.5329 194.063 38.0778 194.608C38.6227 195.153 39.2696 195.586 39.9816 195.881C40.6935 196.176 41.4566 196.328 42.2272 196.328H81.0489C79.8634 196.707 78.8288 197.453 78.0947 198.458C77.3605 199.464 76.9647 200.676 76.9645 201.922V217.416C76.9645 218.187 77.1163 218.951 77.4112 219.663C77.7061 220.375 78.1383 221.023 78.6832 221.568C79.2281 222.113 79.875 222.546 80.5869 222.841C81.2989 223.136 82.062 223.288 82.8326 223.288H116.561C115.782 223.827 115.146 224.548 114.706 225.388C114.267 226.227 114.037 227.161 114.037 228.109V243.603C114.037 245.161 114.656 246.654 115.756 247.755C116.857 248.856 118.349 249.475 119.906 249.475H74.0952C73.3246 249.475 72.5616 249.627 71.8496 249.922C71.1376 250.217 70.4908 250.65 69.9458 251.195C69.4009 251.74 68.9687 252.387 68.6738 253.1C68.3789 253.812 68.2271 254.576 68.2271 255.347V270.841C68.2271 271.612 68.3789 272.376 68.6738 273.088C68.9687 273.8 69.401 274.448 69.9459 274.993C70.4908 275.538 71.1377 275.971 71.8496 276.266C72.5616 276.561 73.3246 276.713 74.0952 276.713H130.742C131.513 276.713 132.276 276.561 132.988 276.266C133.7 275.971 134.347 275.538 134.892 274.993C135.437 274.448 135.869 273.8 136.164 273.088C136.459 272.376 136.611 271.612 136.611 270.841C136.611 271.612 136.762 272.376 137.057 273.088C137.352 273.8 137.784 274.448 138.329 274.993C138.874 275.538 139.521 275.971 140.233 276.266C140.945 276.561 141.708 276.713 142.479 276.713H199.126C199.897 276.713 200.66 276.561 201.372 276.266C202.083 275.971 202.73 275.538 203.275 274.993C203.82 274.448 204.252 273.8 204.547 273.088C204.842 272.376 204.994 271.612 204.994 270.841V255.347C204.994 254.272 204.699 253.218 204.141 252.3C203.583 251.382 202.784 250.634 201.831 250.139H189.617C188.675 250.14 187.747 249.912 186.912 249.475H176.553C178.109 249.475 179.602 248.856 180.702 247.755C181.803 246.654 182.421 245.161 182.421 243.603C182.421 246.158 183.749 228.773 183.749 228.773C183.749 228.002 183.9 227.239 184.195 226.526C184.49 225.814 184.923 225.167 185.467 224.621C186.012 224.076 186.659 223.644 187.371 223.348C188.083 223.053 188.846 222.902 189.617 222.902L211.208 222.237C211.824 221.806 212.351 221.261 212.763 220.631C212.457 219.912 212.299 219.139 212.297 218.358V202.864C212.296 201.715 212.634 200.591 213.268 199.633C212.806 198.55 212.031 197.63 211.043 196.992H180.322C179.193 196.993 178.087 196.665 177.14 196.05H169.042C170.227 195.671 171.262 194.925 171.996 193.92C172.73 192.914 173.126 191.701 173.126 190.456L172.918 175.075C172.918 174.382 172.881 173.769 172.854 173.226C172.467 171.975 171.675 170.89 170.603 170.141H175.649C175.611 170.167 175.578 170.199 175.54 170.226C178.401 170.062 211.082 168.144 213.739 166.004C213.671 165.598 213.658 165.185 213.7 164.775C213.652 164.48 213.627 164.182 213.625 163.883V148.388C213.625 148.196 213.636 148.006 213.654 147.819C213.477 146.752 213.009 145.754 212.302 144.936C211.595 144.118 210.677 143.51 209.647 143.181H216.788C217.623 142.744 218.551 142.516 219.493 142.517H235.69C236.644 142.022 237.443 141.274 238.001 140.356C238.559 139.438 238.854 138.384 238.854 137.309V121.815C238.854 120.867 238.625 119.933 238.185 119.094C237.746 118.254 237.109 117.533 236.33 116.994L219.493 115.943C216.64 115.943 214.752 114.897 216.255 115.943H211.208C211.982 115.407 212.615 114.692 213.053 113.858C213.492 113.025 213.724 112.098 213.729 111.157C213.661 110.799 213.626 110.436 213.625 110.071V94.5772C213.625 94.5644 213.627 94.5522 213.627 94.5395C213.43 93.4995 212.957 92.532 212.256 91.739C211.556 90.9459 210.654 90.3569 209.647 90.034H215.777C216.824 89.1732 218.138 88.7035 219.493 88.7053H257.278C257.953 88.1561 258.496 87.4633 258.869 86.6774C259.242 85.8915 259.436 85.0323 259.435 84.1622V68.668C259.435 67.8969 259.283 67.1333 258.989 66.4209C258.694 65.7085 258.261 65.0612 257.716 64.516C257.172 63.9707 256.525 63.5382 255.813 63.2431C255.101 62.948 254.338 62.7961 253.567 62.7961ZM104.61 116.994C103.831 117.533 103.195 118.254 102.756 119.094C102.316 119.933 102.087 120.867 102.087 121.815C102.087 120.867 101.858 119.933 101.418 119.094C100.979 118.254 100.342 117.533 99.5635 116.994H104.61ZM102.087 137.309C102.087 138.554 102.483 139.767 103.217 140.773C103.951 141.778 104.986 142.524 106.171 142.903H98.0024C99.188 142.524 100.223 141.778 100.957 140.773C101.691 139.767 102.087 138.554 102.087 137.309ZM107.266 170.141C106.487 170.68 105.851 171.401 105.411 172.241C104.972 173.08 104.742 174.014 104.743 174.962C104.743 174.014 104.513 173.08 104.074 172.241C103.634 171.401 102.998 170.68 102.219 170.141H107.266ZM100.658 196.05C101.844 195.671 102.878 194.925 103.612 193.92C104.347 192.914 104.742 191.701 104.743 190.456C104.743 191.701 105.139 192.914 105.873 193.92C106.607 194.925 107.642 195.671 108.827 196.05H100.658ZM172.994 116.994C172.215 117.533 171.579 118.254 171.139 119.094C170.7 119.933 170.47 120.867 170.47 121.815C170.471 120.867 170.241 119.933 169.802 119.094C169.362 118.254 168.726 117.533 167.947 116.994H172.994ZM136.611 255.347C136.611 254.576 136.459 253.812 136.164 253.1C135.869 252.387 135.437 251.74 134.892 251.195C134.347 250.65 133.7 250.217 132.988 249.922C132.276 249.627 131.513 249.475 130.742 249.475H142.479C141.708 249.475 140.945 249.627 140.233 249.922C139.521 250.217 138.874 250.65 138.329 251.195C137.784 251.74 137.352 252.387 137.057 253.1C136.762 253.812 136.611 254.576 136.611 255.347ZM142.824 222.237C143.603 221.698 144.24 220.977 144.679 220.137C145.119 219.298 145.348 218.364 145.348 217.416C145.348 218.364 145.577 219.298 146.017 220.137C146.456 220.977 147.093 221.698 147.871 222.237H142.824ZM145.348 201.922C145.348 200.676 144.952 199.464 144.218 198.458C143.484 197.453 142.449 196.707 141.263 196.328H149.432C148.247 196.707 147.212 197.453 146.478 198.458C145.744 199.463 145.348 200.676 145.348 201.922ZM142.824 169.09C143.603 168.551 144.24 167.83 144.679 166.99C145.119 166.151 145.348 165.217 145.348 164.269C145.348 165.217 145.577 166.151 146.017 166.99C146.456 167.83 147.093 168.551 147.871 169.09H142.824ZM145.348 148.775C145.348 147.529 144.952 146.316 144.218 145.311C143.484 144.306 142.449 143.56 141.263 143.181H149.432C148.247 143.56 147.212 144.306 146.478 145.311C145.744 146.316 145.348 147.529 145.348 148.775ZM142.824 115.943C143.603 115.404 144.24 114.683 144.679 113.843C145.119 113.004 145.348 112.07 145.348 111.122C145.348 112.07 145.577 113.004 146.017 113.843C146.456 114.683 147.093 115.404 147.871 115.943H142.824ZM145.348 95.6276C145.348 94.3824 144.952 93.1695 144.218 92.164C143.484 91.1586 142.449 90.4127 141.263 90.034H149.432C148.247 90.4127 147.212 91.1586 146.478 92.164C145.744 93.1695 145.348 94.3824 145.348 95.6276ZM166.386 142.903C167.571 142.524 168.606 141.778 169.34 140.773C170.074 139.767 170.47 138.554 170.47 137.309C170.471 138.554 170.866 139.767 171.601 140.773C172.335 141.778 173.369 142.524 174.555 142.903H166.386ZM186.967 89.7559C188.153 89.3772 189.187 88.6313 189.922 87.6258C190.656 86.6204 191.052 85.4074 191.052 84.1622C191.052 85.4074 191.448 86.6204 192.182 87.6258C192.916 88.6313 193.951 89.3772 195.136 89.7559H186.967Z" fill="#0788E9"/>
<path opacity="0.45" d="M240.783 117.472C240.811 117.447 240.838 117.421 240.866 117.396C240.838 117.421 240.811 117.446 240.783 117.472Z" fill="#0788E9"/>
<path opacity="0.45" d="M240.393 117.861C240.364 117.892 240.335 117.923 240.307 117.956C240.335 117.923 240.364 117.892 240.393 117.861Z" fill="#0788E9"/>
<path opacity="0.45" d="M239.901 118.473C239.914 118.454 239.929 118.435 239.943 118.416C239.929 118.435 239.914 118.454 239.901 118.473Z" fill="#0788E9"/>
<path opacity="0.45" d="M239.106 139.002C239.174 139.231 239.256 139.455 239.352 139.674C239.256 139.455 239.174 139.231 239.106 139.002Z" fill="#0788E9"/>
<path opacity="0.45" d="M239.732 140.397C239.864 140.607 240.009 140.809 240.166 141.002C240.009 140.809 239.864 140.607 239.732 140.397Z" fill="#0788E9"/>
<path opacity="0.45" d="M239.381 139.736C239.483 139.961 239.599 140.18 239.729 140.391C239.599 140.18 239.483 139.961 239.381 139.736Z" fill="#0788E9"/>
<path opacity="0.45" d="M239.014 120.471C239.031 120.399 239.05 120.328 239.069 120.257C239.05 120.328 239.031 120.399 239.014 120.471Z" fill="#0788E9"/>
<path opacity="0.45" d="M239.213 119.809C239.234 119.75 239.254 119.691 239.277 119.634C239.254 119.691 239.234 119.75 239.213 119.809Z" fill="#0788E9"/>
<path opacity="0.45" d="M238.896 121.136C238.904 121.068 238.917 121 238.927 120.932C238.917 121 238.904 121.067 238.896 121.136Z" fill="#0788E9"/>
<path opacity="0.45" d="M239.536 119.071C239.539 119.064 239.542 119.057 239.546 119.05C239.542 119.057 239.539 119.064 239.536 119.071Z" fill="#0788E9"/>
<path opacity="0.1" d="M128.016 90.0339L187.032 90.0339C189.619 90.0339 191.716 87.9358 191.716 85.3475V67.4825C191.716 64.8943 189.619 62.7961 187.032 62.7961L128.016 62.7961C125.429 62.7961 123.332 64.8943 123.332 67.4825V85.3475C123.332 87.9358 125.429 90.0339 128.016 90.0339Z" fill="black"/>
<path opacity="0.1" d="M332.502 90.0339L391.519 90.0339C394.105 90.0339 396.202 87.9358 396.202 85.3475V67.4825C396.202 64.8943 394.105 62.7961 391.519 62.7961L332.502 62.7961C329.916 62.7961 327.819 64.8943 327.819 67.4825V85.3475C327.819 87.9358 329.916 90.0339 332.502 90.0339Z" fill="black"/>
<path opacity="0.1" d="M423.459 116.607L482.475 116.607C485.062 116.607 487.159 114.509 487.159 111.921V94.056C487.159 91.4677 485.062 89.3696 482.475 89.3696H423.459C420.872 89.3696 418.775 91.4677 418.775 94.056V111.921C418.775 114.509 420.872 116.607 423.459 116.607Z" fill="black"/>
<path opacity="0.1" d="M311.921 143.181H370.937C373.524 143.181 375.621 141.083 375.621 138.495V120.629C375.621 118.041 373.524 115.943 370.937 115.943H311.921C309.334 115.943 307.237 118.041 307.237 120.629V138.495C307.237 141.083 309.334 143.181 311.921 143.181Z" fill="black"/>
<path opacity="0.1" d="M423.459 170.419H482.475C485.062 170.419 487.159 168.321 487.159 165.732V147.867C487.159 145.279 485.062 143.181 482.475 143.181H423.459C420.872 143.181 418.775 145.279 418.775 147.867V165.732C418.775 168.321 420.872 170.419 423.459 170.419Z" fill="black"/>
<path opacity="0.1" d="M423.459 223.566H482.475C485.062 223.566 487.159 221.468 487.159 218.88V201.014C487.159 198.426 485.062 196.328 482.475 196.328H423.459C420.872 196.328 418.775 198.426 418.775 201.014V218.88C418.775 221.468 420.872 223.566 423.459 223.566Z" fill="black"/>
<path opacity="0.1" d="M451.682 222.901H391.844C390.92 222.902 390.021 223.202 389.282 223.756C388.543 224.311 388.003 225.091 387.745 225.978C387.76 226.22 387.744 226.462 387.696 226.699C387.665 226.838 387.625 226.975 387.575 227.108C387.574 227.131 387.571 227.153 387.571 227.177V245.864C387.571 246.998 388.021 248.085 388.823 248.887C389.624 249.689 390.711 250.139 391.844 250.139H451.682C452.815 250.139 453.902 249.689 454.703 248.887C455.505 248.085 455.955 246.998 455.955 245.864V227.177C455.955 226.615 455.844 226.059 455.629 225.541C455.415 225.022 455.1 224.551 454.703 224.154C454.307 223.757 453.836 223.442 453.317 223.227C452.799 223.012 452.243 222.901 451.682 222.901Z" fill="black"/>
<path opacity="0.1" d="M346.444 276.713H405.461C408.048 276.713 410.144 274.615 410.144 272.027V254.161C410.144 251.573 408.048 249.475 405.461 249.475H346.444C343.858 249.475 341.761 251.573 341.761 254.161V272.027C341.761 274.615 343.858 276.713 346.444 276.713Z" fill="black"/>
<path opacity="0.1" d="M149.925 116.607L208.942 116.607C211.528 116.607 213.625 114.509 213.625 111.921V94.056C213.625 91.4677 211.528 89.3696 208.942 89.3696H149.925C147.338 89.3696 145.242 91.4677 145.242 94.056V111.921C145.242 114.509 147.338 116.607 149.925 116.607Z" fill="black"/>
<path opacity="0.1" d="M107.434 143.181H166.451C169.037 143.181 171.134 141.083 171.134 138.495V120.629C171.134 118.041 169.037 115.943 166.451 115.943H107.434C104.848 115.943 102.751 118.041 102.751 120.629V138.495C102.751 141.083 104.848 143.181 107.434 143.181Z" fill="black"/>
<path opacity="0.1" d="M81.5415 170.419H140.558C143.145 170.419 145.241 168.321 145.241 165.732V147.867C145.241 145.279 143.145 143.181 140.558 143.181H81.5415C78.9549 143.181 76.8581 145.279 76.8581 147.867V165.732C76.8581 168.321 78.9549 170.419 81.5415 170.419Z" fill="black"/>
<path opacity="0.1" d="M109.426 196.992H168.443C171.029 196.992 173.126 194.894 173.126 192.306V174.441C173.126 171.853 171.029 169.755 168.443 169.755H109.426C106.839 169.755 104.743 171.853 104.743 174.441V192.306C104.743 194.894 106.839 196.992 109.426 196.992Z" fill="black"/>
<path opacity="0.1" d="M81.5415 223.566H140.558C143.145 223.566 145.241 221.468 145.241 218.88V201.014C145.241 198.426 143.145 196.328 140.558 196.328H81.5415C78.9549 196.328 76.8581 198.426 76.8581 201.014V218.88C76.8581 221.468 78.9549 223.566 81.5415 223.566Z" fill="black"/>
<path opacity="0.45" d="M50.6049 250.169H109.622C112.208 250.169 114.305 248.071 114.305 245.482V227.617C114.305 225.029 112.208 222.931 109.622 222.931H50.6049C48.0183 222.931 45.9215 225.029 45.9215 227.617V245.482C45.9215 248.071 48.0183 250.169 50.6049 250.169Z" fill="#0788E9"/>
<path opacity="0.45" d="M449.88 196.963H508.897C511.483 196.963 513.58 194.865 513.58 192.277V174.411C513.58 171.823 511.483 169.725 508.897 169.725H449.88C447.293 169.725 445.197 171.823 445.197 174.411V192.277C445.197 194.865 447.293 196.963 449.88 196.963Z" fill="#0788E9"/>
<path opacity="0.45" d="M446.98 143.273H505.996C508.583 143.273 510.68 141.175 510.68 138.587V120.722C510.68 118.134 508.583 116.035 505.996 116.035H446.98C444.393 116.035 442.296 118.134 442.296 120.722V138.587C442.296 141.175 444.393 143.273 446.98 143.273Z" fill="#0788E9"/>
<path opacity="0.45" d="M481.3 276.288H540.317C542.903 276.288 545 274.19 545 271.602V253.737C545 251.148 542.903 249.05 540.317 249.05H481.3C478.713 249.05 476.617 251.148 476.617 253.737V271.602C476.617 274.19 478.713 276.288 481.3 276.288Z" fill="#0788E9"/>
<path opacity="0.45" d="M4.68343 276.772H63.7C66.2866 276.772 68.3835 274.674 68.3835 272.085V254.22C68.3835 251.632 66.2866 249.534 63.7 249.534H4.68343C2.09686 249.534 1.52588e-05 251.632 1.52588e-05 254.22V272.085C1.52588e-05 274.674 2.09686 276.772 4.68343 276.772Z" fill="#0788E9"/>
<path opacity="0.45" d="M13.8677 223.082H72.8843C75.4709 223.082 77.5677 220.984 77.5677 218.396V200.531C77.5677 197.942 75.4709 195.844 72.8843 195.844H13.8677C11.2811 195.844 9.1843 197.942 9.1843 200.531V218.396C9.1843 220.984 11.2811 223.082 13.8677 223.082Z" fill="#0788E9"/>
<path opacity="0.45" d="M13.8677 170.36H72.8843C75.4709 170.36 77.5677 168.262 77.5677 165.673V147.808C77.5677 145.22 75.4709 143.122 72.8843 143.122H13.8677C11.2811 143.122 9.1843 145.22 9.1843 147.808V165.673C9.1843 168.262 11.2811 170.36 13.8677 170.36Z" fill="#0788E9"/>
<path opacity="0.45" d="M16.2846 116.67L75.3012 116.67C77.8878 116.67 79.9847 114.572 79.9847 111.984V94.119C79.9847 91.5308 77.8878 89.4326 75.3012 89.4326H16.2846C13.6981 89.4326 11.6012 91.5308 11.6012 94.119V111.984C11.6012 114.572 13.6981 116.67 16.2846 116.67Z" fill="#0788E9"/>
<path opacity="0.1" d="M16.2846 116.67L75.3012 116.67C77.8878 116.67 79.9847 114.572 79.9847 111.984V94.119C79.9847 91.5308 77.8878 89.4326 75.3012 89.4326H16.2846C13.6981 89.4326 11.6012 91.5308 11.6012 94.119V111.984C11.6012 114.572 13.6981 116.67 16.2846 116.67Z" fill="black"/>
<path opacity="0.45" d="M59.7892 90.0674L118.806 90.0674C121.392 90.0674 123.489 87.9692 123.489 85.381V67.5159C123.489 64.9277 121.392 62.8295 118.806 62.8295L59.7892 62.8295C57.2026 62.8295 55.1058 64.9277 55.1058 67.5159V85.381C55.1058 87.9692 57.2026 90.0674 59.7892 90.0674Z" fill="#0788E9"/>
<path opacity="0.1" d="M119.385 250.139H178.401C180.988 250.139 183.085 248.041 183.085 245.453V227.588C183.085 225 180.988 222.902 178.401 222.902H119.385C116.798 222.902 114.701 225 114.701 227.588V245.453C114.701 248.041 116.798 250.139 119.385 250.139Z" fill="black"/>
<path opacity="0.1" d="M72.9105 276.713H131.927C134.514 276.713 136.611 274.615 136.611 272.027V254.161C136.611 251.573 134.514 249.475 131.927 249.475H72.9105C70.324 249.475 68.2271 251.573 68.2271 254.161V272.027C68.2271 274.615 70.324 276.713 72.9105 276.713Z" fill="black"/>
</g>
<path opacity="0.5" d="M429.382 30.6681C437.845 30.6681 444.706 23.8028 444.706 15.3341C444.706 6.86529 437.845 0 429.382 0C420.918 0 414.057 6.86529 414.057 15.3341C414.057 23.8028 420.918 30.6681 429.382 30.6681Z" fill="#0788E9"/>
<path opacity="0.5" d="M133.498 43.1352H129.852C130.188 43.1361 130.52 43.0708 130.831 42.9429C131.141 42.815 131.424 42.627 131.661 42.3898C131.899 42.1526 132.088 41.8707 132.216 41.5604C132.345 41.2501 132.411 40.9174 132.411 40.5814C132.411 40.2454 132.345 39.9127 132.216 39.6024C132.088 39.2921 131.899 39.0102 131.661 38.773C131.424 38.5357 131.141 38.3478 130.831 38.2199C130.52 38.092 130.188 38.0266 129.852 38.0276H100.32C99.9838 38.0266 99.6511 38.092 99.3406 38.2199C99.0301 38.3478 98.7479 38.5357 98.5101 38.773C98.2724 39.0102 98.0837 39.2921 97.955 39.6024C97.8263 39.9127 97.76 40.2454 97.76 40.5814C97.76 40.9174 97.8263 41.2501 97.955 41.5604C98.0837 41.8707 98.2724 42.1526 98.5101 42.3898C98.7479 42.627 99.0301 42.815 99.3406 42.9429C99.6511 43.0708 99.9838 43.1361 100.32 43.1352H103.966C103.63 43.1345 103.297 43.2 102.987 43.3281C102.677 43.4561 102.395 43.6441 102.157 43.8813C101.92 44.1185 101.732 44.4003 101.603 44.7105C101.474 45.0207 101.408 45.3532 101.408 45.689C101.408 46.0248 101.474 46.3573 101.603 46.6675C101.732 46.9776 101.92 47.2594 102.157 47.4966C102.395 47.7338 102.677 47.9218 102.987 48.0499C103.297 48.1779 103.63 48.2434 103.966 48.2428H98.8612C98.1856 48.2447 97.5383 48.5146 97.0613 48.9933C96.5842 49.4721 96.3163 50.1205 96.3163 50.7966C96.3163 51.4726 96.5842 52.121 97.0613 52.5998C97.5383 53.0785 98.1856 53.3484 98.8612 53.3503H128.394C129.069 53.3484 129.716 53.0785 130.193 52.5998C130.671 52.121 130.938 51.4726 130.938 50.7966C130.938 50.1205 130.671 49.4721 130.193 48.9933C129.716 48.5146 129.069 48.2447 128.394 48.2428H133.498C134.174 48.2414 134.822 47.9717 135.299 47.4929C135.777 47.0142 136.045 46.3654 136.045 45.689C136.045 45.0126 135.777 44.3638 135.299 43.885C134.822 43.4062 134.174 43.1366 133.498 43.1352Z" fill="#DEE3F3"/>
<path opacity="0.5" d="M427.439 13.4914H424.665C425.18 13.4914 425.674 13.2867 426.038 12.9222C426.402 12.5577 426.607 12.0633 426.607 11.5478C426.607 11.0324 426.402 10.538 426.038 10.1735C425.674 9.80902 425.18 9.60425 424.665 9.60425H402.189C401.673 9.60425 401.179 9.80902 400.815 10.1735C400.451 10.538 400.246 11.0324 400.246 11.5478C400.246 12.0633 400.451 12.5577 400.815 12.9222C401.179 13.2867 401.673 13.4914 402.189 13.4914H404.963C404.448 13.4914 403.954 13.6962 403.59 14.0607C403.226 14.4252 403.021 14.9196 403.021 15.435C403.021 15.9505 403.226 16.4449 403.59 16.8094C403.954 17.1739 404.448 17.3786 404.963 17.3786H401.079C400.824 17.3786 400.571 17.4289 400.335 17.5266C400.1 17.6243 399.886 17.7674 399.705 17.9479C399.525 18.1284 399.382 18.3427 399.284 18.5785C399.187 18.8143 399.136 19.067 399.136 19.3222C399.136 19.5775 399.187 19.8302 399.284 20.066C399.382 20.3018 399.525 20.5161 399.705 20.6966C399.886 20.8771 400.1 21.0202 400.335 21.1179C400.571 21.2156 400.824 21.2658 401.079 21.2658H423.555C423.81 21.2658 424.062 21.2156 424.298 21.1179C424.534 21.0202 424.748 20.8771 424.928 20.6966C425.109 20.5161 425.252 20.3018 425.349 20.066C425.447 19.8302 425.497 19.5775 425.497 19.3222C425.497 19.067 425.447 18.8143 425.349 18.5785C425.252 18.3427 425.109 18.1284 424.928 17.9479C424.748 17.7674 424.534 17.6243 424.298 17.5266C424.062 17.4289 423.81 17.3786 423.555 17.3786H427.439C427.955 17.3786 428.449 17.1739 428.813 16.8094C429.177 16.4449 429.382 15.9505 429.382 15.435C429.382 14.9196 429.177 14.4252 428.813 14.0607C428.449 13.6962 427.955 13.4914 427.439 13.4914H427.439Z" fill="#DEE3F3"/>
<path opacity="0.5" d="M203.442 7.0805H199.796C200.132 7.08146 200.465 7.01612 200.775 6.88821C201.086 6.76031 201.368 6.57235 201.606 6.33511C201.844 6.09787 202.032 5.81602 202.161 5.5057C202.29 5.19538 202.356 4.86269 202.356 4.5267C202.356 4.19071 202.29 3.85803 202.161 3.54771C202.032 3.23738 201.844 2.95553 201.606 2.71829C201.368 2.48105 201.086 2.2931 200.775 2.16519C200.465 2.03728 200.132 1.97194 199.796 1.97291H170.264C169.928 1.97194 169.595 2.03728 169.285 2.16519C168.974 2.2931 168.692 2.48105 168.454 2.71829C168.217 2.95553 168.028 3.23738 167.899 3.54771C167.771 3.85803 167.704 4.19071 167.704 4.5267C167.704 4.86269 167.771 5.19538 167.899 5.5057C168.028 5.81602 168.217 6.09787 168.454 6.33511C168.692 6.57235 168.974 6.76031 169.285 6.88821C169.595 7.01612 169.928 7.08146 170.264 7.0805H173.91C173.574 7.07981 173.242 7.14536 172.932 7.27339C172.621 7.40143 172.339 7.58943 172.102 7.82664C171.864 8.06385 171.676 8.34561 171.547 8.65579C171.419 8.96597 171.353 9.29848 171.353 9.63429C171.353 9.97009 171.419 10.3026 171.547 10.6128C171.676 10.923 171.864 11.2047 172.102 11.4419C172.339 11.6791 172.621 11.8671 172.932 11.9952C173.242 12.1232 173.574 12.1888 173.91 12.1881H168.806C168.13 12.19 167.483 12.4599 167.006 12.9387C166.529 13.4174 166.261 14.0658 166.261 14.7419C166.261 15.4179 166.529 16.0664 167.006 16.5451C167.483 17.0238 168.13 17.2937 168.806 17.2957H198.338C199.014 17.2937 199.661 17.0238 200.138 16.5451C200.615 16.0664 200.883 15.4179 200.883 14.7419C200.883 14.0658 200.615 13.4174 200.138 12.9387C199.661 12.4599 199.014 12.19 198.338 12.1881H203.442C204.118 12.1867 204.766 11.917 205.244 11.4383C205.721 10.9595 205.989 10.3107 205.989 9.63429C205.989 8.95788 205.721 8.3091 205.244 7.83032C204.766 7.35154 204.118 7.08187 203.442 7.0805Z" fill="#DEE3F3"/>
<path d="M316.31 140.371H207.117C203.322 140.371 200.245 143.449 200.245 147.247V190.544C200.245 194.342 203.322 197.421 207.117 197.421H316.31C320.106 197.421 323.182 194.342 323.182 190.544V147.247C323.182 143.449 320.106 140.371 316.31 140.371Z" fill="#0788E9"/>
<path opacity="0.1" d="M313.383 188.665H210.044V189.735H313.383V188.665Z" fill="black"/>
<path opacity="0.3" d="M313.383 149.285H210.044V188.507H313.383V149.285Z" fill="black"/>
<path opacity="0.1" d="M234.097 183.977C241.969 183.977 248.351 177.591 248.351 169.714C248.351 161.837 241.969 155.452 234.097 155.452C226.225 155.452 219.844 161.837 219.844 169.714C219.844 177.591 226.225 183.977 234.097 183.977Z" fill="black"/>
<path opacity="0.1" d="M289.33 183.977C297.202 183.977 303.584 177.591 303.584 169.714C303.584 161.837 297.202 155.452 289.33 155.452C281.458 155.452 275.077 161.837 275.077 169.714C275.077 177.591 281.458 183.977 289.33 183.977Z" fill="black"/>
<path d="M272.402 197.419H251.023V209.902H272.402V197.419Z" fill="#0788E9"/>
<path d="M306.256 206.335H217.171V277.649H306.256V206.335Z" fill="#0788E9"/>
<path d="M308.038 291.911H215.389V300.825H308.038V291.911Z" fill="#0788E9"/>
<path d="M230.534 322.219V332.917V348.962V357.876V363.224H246.569V357.876V348.962V332.917V322.219V309.74H230.534V322.219Z" fill="#0788E9"/>
<path d="M278.64 309.74V322.219V332.917V348.962V357.876V363.224H294.675V357.876V348.962V332.917V322.219V309.74H278.64Z" fill="#0788E9"/>
<path d="M205.037 222.381V238.871C200.636 239.64 196.535 241.618 193.192 244.585C190.092 247.457 187.681 250.994 186.14 254.931C184.079 259.928 183.077 265.478 182.668 270.725C182.163 277.802 182.494 284.914 183.654 291.913H165.837C165.08 282.058 165.321 273.602 166.303 266.342C167.403 258.156 169.44 251.493 172.021 246.074C177.183 235.241 184.525 229.364 190.975 226.171C198.636 222.381 205.037 222.381 205.037 222.381Z" fill="#0788E9"/>
<path opacity="0.3" d="M246.569 309.74H230.534V322.219H246.569V309.74Z" fill="black"/>
<path opacity="0.3" d="M246.569 332.917H230.534V348.962H246.569V332.917Z" fill="black"/>
<path opacity="0.3" d="M246.569 357.876H230.534V363.224H246.569V357.876Z" fill="black"/>
<path opacity="0.3" d="M294.675 309.74H278.64V322.219H294.675V309.74Z" fill="black"/>
<path opacity="0.3" d="M294.675 332.917H278.64V348.962H294.675V332.917Z" fill="black"/>
<path opacity="0.3" d="M294.675 357.876H278.64V363.224H294.675V357.876Z" fill="black"/>
<path opacity="0.3" d="M205.037 222.381V238.871C200.636 239.64 196.535 241.618 193.192 244.585L190.975 226.171C198.636 222.381 205.037 222.381 205.037 222.381Z" fill="black"/>
<path opacity="0.3" d="M186.14 254.931C184.079 259.928 183.077 265.478 182.668 270.725L166.303 266.342C167.403 258.156 169.44 251.493 172.021 246.074L186.14 254.931Z" fill="black"/>
<path d="M318.39 222.381V238.871C322.792 239.64 326.893 241.618 330.236 244.585C333.336 247.457 335.746 250.994 337.287 254.931C339.348 259.928 340.351 265.478 340.76 270.725C341.264 277.802 340.933 284.914 339.774 291.913H357.591C358.347 282.058 358.106 273.602 357.124 266.342C356.024 258.156 353.987 251.493 351.406 246.074C346.245 235.241 338.903 229.364 332.452 226.171C324.792 222.381 318.39 222.381 318.39 222.381Z" fill="#0788E9"/>
<path opacity="0.3" d="M318.39 222.381V238.871C322.792 239.64 326.893 241.618 330.236 244.585L332.452 226.171C324.792 222.381 318.39 222.381 318.39 222.381Z" fill="black"/>
<path opacity="0.3" d="M337.287 254.931C339.348 259.928 340.351 265.478 340.76 270.725L357.124 266.342C356.024 258.156 353.987 251.493 351.406 246.074L337.287 254.931Z" fill="black"/>
<path opacity="0.1" d="M272.402 197.419H251.023V198.897H272.402V197.419Z" fill="black"/>
<path opacity="0.1" d="M307.839 219.042V248.898C306.774 247.747 306.182 246.236 306.183 244.666V223.269C306.182 221.701 306.774 220.191 307.839 219.042Z" fill="black"/>
<path opacity="0.1" d="M217.487 221.01V243.361C217.381 244.774 216.795 246.108 215.827 247.143V217.229C216.795 218.263 217.381 219.597 217.487 221.01Z" fill="black"/>
<path opacity="0.1" d="M301.802 277.65H221.627V278.706H301.802V277.65Z" fill="black"/>
<path opacity="0.1" d="M259.04 300.827H219.843V301.646H259.04V300.827Z" fill="black"/>
<path opacity="0.1" d="M301.802 300.827H262.606V301.646H301.802V300.827Z" fill="black"/>
<path d="M230.351 87.574H224.216V140.371H230.351V87.574Z" fill="#0788E9"/>
<path d="M300.702 87.574H294.567V140.371H300.702V87.574Z" fill="#0788E9"/>
<path opacity="0.1" d="M227.079 94.9408C230.919 94.9408 234.032 91.8257 234.032 87.9831C234.032 84.1405 230.919 81.0254 227.079 81.0254C223.239 81.0254 220.126 84.1405 220.126 87.9831C220.126 91.8257 223.239 94.9408 227.079 94.9408Z" fill="black"/>
<path d="M227.079 94.5316C230.919 94.5316 234.032 91.4165 234.032 87.5739C234.032 83.7313 230.919 80.6162 227.079 80.6162C223.239 80.6162 220.126 83.7313 220.126 87.5739C220.126 91.4165 223.239 94.5316 227.079 94.5316Z" fill="#0788E9"/>
<path opacity="0.1" d="M297.839 94.9408C301.679 94.9408 304.792 91.8257 304.792 87.9831C304.792 84.1405 301.679 81.0254 297.839 81.0254C293.999 81.0254 290.886 84.1405 290.886 87.9831C290.886 91.8257 293.999 94.9408 297.839 94.9408Z" fill="black"/>
<path d="M297.839 94.5316C301.679 94.5316 304.792 91.4165 304.792 87.5739C304.792 83.7313 301.679 80.6162 297.839 80.6162C293.999 80.6162 290.886 83.7313 290.886 87.5739C290.886 91.4165 293.999 94.5316 297.839 94.5316Z" fill="#0788E9"/>
<path d="M80.2889 249.315C80.2889 249.315 100.636 289.281 84.0569 311.15C67.4775 333.018 85.5642 392.591 85.5642 392.591" stroke="#FC6681" stroke-width="2" stroke-miterlimit="10"/>
<path d="M86.3178 236.872C86.3178 244.577 80.6657 250.823 80.6657 250.823C80.6657 250.823 75.0136 244.577 75.0136 236.872C75.0136 229.168 80.6657 222.922 80.6657 222.922C80.6657 222.922 86.3178 229.168 86.3178 236.872Z" fill="#FC6681"/>
<path d="M90.8394 249.315C90.8394 249.315 70.492 289.281 87.0714 311.15C103.651 333.018 85.5641 392.591 85.5641 392.591" stroke="#FFD037" stroke-width="2" stroke-miterlimit="10"/>
<path d="M84.8105 236.872C84.8105 244.577 90.4626 250.823 90.4626 250.823C90.4626 250.823 96.1147 244.577 96.1147 236.872C96.1147 229.168 90.4626 222.922 90.4626 222.922C90.4626 222.922 84.8105 229.168 84.8105 236.872Z" fill="#FFD037"/>
<path d="M99.1291 249.315C99.1291 249.315 119.477 289.281 102.897 311.15C86.3178 333.018 104.404 392.591 104.404 392.591" stroke="#FC6681" stroke-width="2" stroke-miterlimit="10"/>
<path d="M105.158 236.872C105.158 244.577 99.5059 250.823 99.5059 250.823C99.5059 250.823 93.8539 244.577 93.8539 236.872C93.8539 229.168 99.5059 222.922 99.5059 222.922C99.5059 222.922 105.158 229.168 105.158 236.872Z" fill="#FC6681"/>
<path d="M101.989 268.895C96.6511 274.447 88.2504 275.027 88.2504 275.027C88.2504 275.027 88.5048 266.605 93.8431 261.053C99.1814 255.5 107.582 254.92 107.582 254.92C107.582 254.92 107.328 263.343 101.989 268.895Z" fill="#FC6681"/>
<path d="M102.519 296.466C97.181 302.019 88.7803 302.599 88.7803 302.599C88.7803 302.599 89.0347 294.176 94.373 288.624C99.7113 283.072 108.112 282.492 108.112 282.492C108.112 282.492 107.858 290.914 102.519 296.466Z" fill="#FC6681"/>
<path d="M73.5706 311.637C78.6186 317.455 78.4428 325.879 78.4428 325.879C78.4428 325.879 70.0827 324.87 65.0347 319.052C59.9868 313.234 60.1626 304.81 60.1626 304.81C60.1626 304.81 68.5227 305.819 73.5706 311.637Z" fill="#FC6681"/>
<path d="M78.2538 252.836C84.672 257.093 86.7526 265.257 86.7526 265.257C86.7526 265.257 78.4272 266.521 72.009 262.265C65.5907 258.009 63.5101 249.844 63.5101 249.844C63.5101 249.844 71.8355 248.58 78.2538 252.836Z" fill="#FC6681"/>
<path d="M109.68 249.315C109.68 249.315 89.3322 289.281 105.912 311.15C122.491 333.018 104.404 392.591 104.404 392.591" stroke="#FFD037" stroke-width="2" stroke-miterlimit="10"/>
<path d="M103.651 236.872C103.651 244.577 109.303 250.823 109.303 250.823C109.303 250.823 114.955 244.577 114.955 236.872C114.955 229.168 109.303 222.922 109.303 222.922C109.303 222.922 103.651 229.168 103.651 236.872Z" fill="#FFD037"/>
<path d="M105.277 269.488C99.8725 274.976 99.5172 283.394 99.5172 283.394C99.5172 283.394 107.924 282.915 113.329 277.427C118.733 271.939 119.088 263.521 119.088 263.521C119.088 263.521 110.681 264 105.277 269.488Z" fill="#FFD037"/>
<path d="M115.875 307.663C110.47 313.151 110.115 321.57 110.115 321.57C110.115 321.57 118.522 321.091 123.926 315.603C129.331 310.115 129.686 301.696 129.686 301.696C129.686 301.696 121.279 302.175 115.875 307.663Z" fill="#FFD037"/>
<path d="M100.283 299.273C100.283 299.273 112.532 279.954 129.722 279.54" stroke="#FFD037" stroke-width="2" stroke-miterlimit="10"/>
<path d="M90.7452 287.608C90.7452 287.608 78.4968 268.29 61.3062 267.875" stroke="#FC6681" stroke-width="2" stroke-miterlimit="10"/>
<path d="M89.1556 315.179C89.1556 315.179 101.404 295.861 118.595 295.446" stroke="#FFD037" stroke-width="2" stroke-miterlimit="10"/>
<path d="M129.162 282.571C130.918 282.571 132.341 281.147 132.341 279.39C132.341 277.633 130.918 276.208 129.162 276.208C127.406 276.208 125.982 277.633 125.982 279.39C125.982 281.147 127.406 282.571 129.162 282.571Z" fill="#FFD037"/>
<path d="M61.6017 271.171C63.3576 271.171 64.781 269.747 64.781 267.99C64.781 266.233 63.3576 264.809 61.6017 264.809C59.8458 264.809 58.4224 266.233 58.4224 267.99C58.4224 269.747 59.8458 271.171 61.6017 271.171Z" fill="#FC6681"/>
<path d="M98.1636 321.542C98.1636 321.542 85.9151 302.223 68.7245 301.809" stroke="#FC6681" stroke-width="2" stroke-miterlimit="10"/>
<path d="M69.0201 305.105C70.7759 305.105 72.1994 303.681 72.1994 301.924C72.1994 300.167 70.7759 298.743 69.0201 298.743C67.2642 298.743 65.8408 300.167 65.8408 301.924C65.8408 303.681 67.2642 305.105 69.0201 305.105Z" fill="#FC6681"/>
<path d="M118.829 298.743C120.585 298.743 122.008 297.318 122.008 295.561C122.008 293.804 120.585 292.38 118.829 292.38C117.073 292.38 115.65 293.804 115.65 295.561C115.65 297.318 117.073 298.743 118.829 298.743Z" fill="#FFD037"/>
<path d="M165.867 369.385C165.867 369.385 136.351 363.479 128.48 355.603C120.609 347.727 85.1894 333.944 81.254 343.789C77.3185 353.634 28.125 387.106 61.5766 393.013C95.0281 398.92 140.286 400.889 150.125 396.951C159.964 393.013 165.867 369.385 165.867 369.385Z" fill="#A8A8A8"/>
<path opacity="0.2" d="M61.5766 389.356C95.0281 395.263 140.286 397.232 150.125 393.294C157.617 390.295 162.824 375.886 164.883 369.18C165.506 369.313 165.867 369.385 165.867 369.385C165.867 369.385 159.963 393.013 150.125 396.951C140.286 400.889 95.0281 398.92 61.5765 393.013C51.9204 391.308 49.159 387.304 50.1992 382.236C51.0248 385.543 54.3894 388.087 61.5766 389.356Z" fill="black"/>
<path d="M484.656 256.371C484.656 256.371 491.728 265.625 481.392 279.597C471.056 293.569 462.533 305.364 465.978 314.074C465.978 314.074 481.573 288.126 494.267 287.763C506.961 287.4 498.619 271.976 484.656 256.371Z" fill="#FC6681"/>
<path opacity="0.1" d="M484.656 256.371C485.273 257.265 485.759 258.242 486.101 259.273C498.486 273.834 505.084 287.422 493.179 287.763C482.09 288.08 468.787 307.922 465.601 312.933C465.705 313.32 465.831 313.701 465.978 314.074C465.978 314.074 481.573 288.126 494.267 287.763C506.961 287.4 498.619 271.976 484.656 256.371Z" fill="black"/>
<path d="M497.803 268.166C497.803 271.423 497.438 274.063 496.987 274.063C496.536 274.063 496.171 271.423 496.171 268.166C496.171 264.909 496.627 266.442 497.078 266.442C497.528 266.442 497.803 264.909 497.803 268.166Z" fill="#FFD037"/>
<path d="M502.315 272.054C499.457 273.613 496.965 274.555 496.749 274.159C496.534 273.763 498.676 272.179 501.534 270.62C504.391 269.061 503.264 270.196 503.48 270.592C503.696 270.988 505.173 270.495 502.315 272.054Z" fill="#FFD037"/>
<path d="M447.3 256.371C447.3 256.371 440.228 265.625 450.564 279.597C460.9 293.569 469.423 305.364 465.978 314.074C465.978 314.074 450.383 288.126 437.689 287.763C424.995 287.4 433.337 271.976 447.3 256.371Z" fill="#FC6681"/>
<path opacity="0.1" d="M447.3 256.371C446.683 257.265 446.197 258.242 445.855 259.273C433.47 273.834 426.872 287.422 438.777 287.763C449.867 288.08 463.169 307.922 466.355 312.933C466.251 313.32 466.125 313.701 465.978 314.074C465.978 314.074 450.383 288.126 437.689 287.763C424.995 287.4 433.337 271.976 447.3 256.371Z" fill="black"/>
<path d="M434.153 268.166C434.153 271.423 434.518 274.063 434.969 274.063C435.42 274.063 435.785 271.423 435.785 268.166C435.785 264.909 435.329 266.442 434.878 266.442C434.428 266.442 434.153 264.909 434.153 268.166Z" fill="#FFD037"/>
<path d="M429.641 272.054C432.499 273.613 434.991 274.555 435.207 274.159C435.422 273.763 433.28 272.179 430.422 270.62C427.565 269.061 428.692 270.196 428.476 270.592C428.26 270.988 426.783 270.495 429.641 272.054Z" fill="#FFD037"/>
<path d="M436.405 312.863C436.405 312.863 456.178 312.253 462.137 308.007C468.096 303.761 492.553 298.691 494.032 305.501C495.51 312.311 523.747 339.37 501.423 339.55C479.099 339.73 449.553 336.07 443.605 332.445C437.657 328.82 436.405 312.863 436.405 312.863Z" fill="#A8A8A8"/>
<path opacity="0.2" d="M501.822 337.179C479.498 337.359 449.951 333.7 444.004 330.074C439.474 327.314 437.669 317.407 437.065 312.837C436.647 312.855 436.405 312.862 436.405 312.862C436.405 312.862 437.658 328.82 443.605 332.445C449.553 336.07 479.099 339.73 501.423 339.55C507.867 339.498 510.093 337.203 509.971 333.806C509.076 335.859 506.618 337.14 501.822 337.179Z" fill="black"/>
</svg>
