<svg width="1138" height="152" viewBox="0 0 1138 152" fill="none" xmlns="http://www.w3.org/2000/svg">
<g clip-path="url(#clip0)">
<path d="M92.9367 135.612C96.73 132.767 101.472 142.25 101.472 142.25C101.472 142.25 94.8333 128.025 101.472 127.077C103.368 127.077 106.213 132.767 107.162 139.405C107.162 133.715 109.058 128.973 110.955 128.973C116.645 128.025 112.852 143.198 112.852 143.198L111.903 151.733H102.42C102.42 151.733 89.1433 138.457 92.9367 135.612Z" fill="#0C4499"/>
<path d="M772.892 143.198H773.84C776.805 140.42 778.8 136.764 779.53 132.767C781.427 128.973 781.427 124.232 778.582 119.49C771.943 107.162 756.77 113.8 751.08 120.438C749.456 122.383 748.344 124.704 747.847 127.189C747.35 129.674 747.484 132.243 748.235 134.663C749.3 137.531 751.077 140.081 753.4 142.072C755.723 144.063 758.515 145.43 761.512 146.043C765.528 146.558 769.59 145.542 772.892 143.198Z" fill="#FED036"/>
<path d="M764.357 124.232H765.305V151.733H764.357V124.232Z" fill="#0C4499"/>
<path d="M481.753 141.302C480.805 140.353 477.96 140.353 477.012 142.25C476.483 143.114 476.158 144.087 476.063 145.095C476.063 142.25 475.115 133.715 471.322 133.715C468.477 133.715 468.477 141.302 468.477 145.095C466.58 141.302 465.632 139.405 463.735 139.405C458.045 139.405 464.683 151.733 464.683 151.733H477.96L479.857 148.888C480.636 147.703 481.273 146.43 481.753 145.095C481.881 144.469 481.881 143.824 481.753 143.198C481.97 142.585 481.97 141.915 481.753 141.302Z" fill="#F2AF34"/>
<path d="M242.773 134.663C244.67 134.663 246.567 139.405 247.515 145.095C247.515 140.353 249.412 136.56 250.36 135.612C256.05 135.612 253.205 144.147 253.205 144.147L251.308 151.733H243.722C243.722 151.733 237.083 135.612 242.773 134.663ZM791.858 134.663C793.755 134.663 795.652 139.405 796.6 145.095C796.6 140.353 798.497 136.56 799.445 135.612C805.135 135.612 802.29 144.147 802.29 144.147L800.393 151.733H792.807C792.807 151.733 786.168 135.612 791.858 134.663ZM652.453 130.87C653.402 125.18 649.608 99.575 638.228 103.368C635.383 105.265 631.59 110.955 630.642 113.8C625.9 122.335 624.003 139.405 632.538 146.043C637.28 148.888 643.918 147.94 647.712 144.147C651.505 141.302 652.453 136.56 652.453 130.87Z" fill="#136FFB"/>
<path d="M639.177 119.49H640.125V151.733H639.177V119.49Z" fill="#0C4499"/>
<path d="M1082.05 135.612C1082.05 131.818 1079.2 128.973 1079.2 126.128L1077.31 116.645C1075.41 114.748 1074.46 113.8 1071.62 113.8C1068.77 113.8 1067.82 114.748 1065.93 116.645L1064.98 126.128L1061.18 135.612C1059.29 142.25 1063.08 147.94 1069.72 147.94H1072.56C1074.11 147.966 1075.64 147.648 1077.05 147.01C1078.46 146.371 1079.7 145.428 1080.7 144.248C1081.7 143.068 1082.42 141.682 1082.82 140.188C1083.22 138.694 1083.28 137.131 1083 135.612H1082.05Z" fill="#F2AF34"/>
<path d="M1071.62 126.128H1072.56V151.733H1071.62V126.128ZM188.718 51.21L152.682 110.955H225.703L188.718 51.21Z" fill="#0C4499"/>
<path d="M141.302 52.1584H189.667V110.955H141.302V52.1584Z" fill="#0C4499"/>
<path d="M141.302 51.21L105.265 110.955H178.287L141.302 51.21Z" fill="#136FFB"/>
<path d="M141.302 57.8484L109.058 110.955H174.493L141.302 57.8484ZM109.058 110.955H174.493V130.87H109.058V110.955Z" fill="#C1EDFE"/>
<path d="M156.475 110.955H221.91V130.87H156.475V110.955Z" fill="#C1EDFE"/>
<path d="M123.283 115.697H136.56V125.18H123.283V115.697ZM200.098 115.697H213.375V125.18H200.098V115.697Z" fill="white"/>
<path d="M109.058 130.87H221.91V151.733H109.058V130.87Z" fill="#136FFB"/>
<path d="M138.457 130.87H190.615V151.733H138.457V130.87Z" fill="#0C4499"/>
<path d="M168.803 95.7817L147.94 130.87H190.615L168.803 95.7817Z" fill="#136FFB"/>
<path d="M159.32 95.7817H168.803V104.317H159.32V95.7817Z" fill="#136FFB"/>
<path d="M159.32 95.7817L138.457 130.87H181.132L159.32 95.7817Z" fill="#0C4499"/>
<path d="M159.32 104.317L146.992 125.18H172.597L159.32 104.317Z" fill="#136FFB"/>
<path d="M114.748 133.715H134.663V146.043H114.748V133.715ZM198.202 133.715H217.168V146.043H198.202V133.715Z" fill="white"/>
<path d="M138.457 129.922H181.132V151.733H138.457V129.922Z" fill="#0C4499"/>
<path d="M159.32 130.87C160.268 130.733 161.234 130.803 162.152 131.075C163.071 131.346 163.919 131.814 164.64 132.444C165.361 133.075 165.937 133.854 166.328 134.728C166.719 135.602 166.916 136.551 166.907 137.508V151.733H152.682V137.508C152.682 135.748 153.381 134.059 154.626 132.814C155.871 131.569 157.559 130.87 159.32 130.87Z" fill="#136FFB"/>
<path d="M136.56 84.4016H146.992V100.523H136.56V84.4016Z" fill="white"/>
<path d="M813.67 8.53491H901.865V151.733H813.67V8.53491Z" fill="#136FFB"/>
<path d="M901.865 8.53491H923.677V151.733H901.865V8.53491Z" fill="#0C4499"/>
<path d="M823.153 18.0183H835.482V42.675H823.153V18.0183ZM847.81 18.0183H861.087V42.675H847.81V18.0183ZM823.153 49.3133H835.482V74.9183H823.153V49.3133ZM847.81 49.3133H861.087V74.9183H847.81V49.3133ZM823.153 80.6083H835.482V105.265H823.153V80.6083ZM847.81 80.6083H861.087V105.265H847.81V80.6083ZM876.26 18.0183H889.537V42.675H876.26V18.0183ZM876.26 49.3133H889.537V74.9183H876.26V49.3133ZM876.26 80.6083H889.537V105.265H876.26V80.6083Z" fill="#BFECFF"/>
<path d="M837.378 136.56H867.725V151.733H837.378V136.56Z" fill="#0C4499"/>
<path d="M857.293 120.438C862.983 120.438 867.725 126.128 867.725 132.767V136.56H839.275V120.438H857.293Z" fill="white"/>
<path d="M839.275 120.438C836.172 120.678 833.275 122.081 831.164 124.368C829.054 126.655 827.886 129.655 827.895 132.767V136.56H851.603V132.767C851.603 129.497 850.304 126.361 847.992 124.049C845.68 121.737 842.545 120.438 839.275 120.438ZM804.187 0H901.865V8.535H804.187V0Z" fill="#BFECFF"/>
<path d="M901.865 0H923.677V8.535H901.865V0Z" fill="#006AFF"/>
<path d="M961.61 82.5049H1017.56V151.733H961.61V82.5049Z" fill="#136FFB"/>
<path d="M1017.56 82.5049H1043.17V151.733H1017.56V82.5049Z" fill="#0C4499"/>
<path d="M1026.1 111.903H1056.44V151.733H1026.1V111.903Z" fill="#136FFB"/>
<path d="M1056.44 111.903H1067.82V151.733H1056.44V111.903Z" fill="#0C4499"/>
<path d="M971.093 92.9368H1009.03V109.058H971.093V92.9368Z" fill="#C1E8FA"/>
<path d="M978.68 92.9368H1001.44V109.058H978.68V92.9368ZM1039.37 123.283H1056.44V145.095H1039.37V123.283Z" fill="white"/>
<path d="M1056.44 123.283H1064.03V145.095H1056.44V123.283Z" fill="#C1E8FA"/>
<path d="M971.093 129.922H983.422V146.043H971.093V129.922Z" fill="white"/>
<path d="M971.093 146.043H983.422V151.733H971.093V146.043Z" fill="#C1E8FA"/>
<path d="M991.008 126.128H1009.03V151.733H991.008V126.128Z" fill="#0C4499"/>
<path d="M994.802 129.922H1009.03V151.733H994.802V129.922ZM957.817 116.645H1005.23V120.438H957.817V116.645ZM957.817 80.6084H1017.56V83.4534H957.817V80.6084Z" fill="#C1E8FA"/>
<path d="M1017.56 80.6084H1045.06V83.4534H1017.56V80.6084Z" fill="#136FFB"/>
<path d="M1004.28 116.645H1010.92V120.438H1004.28V116.645Z" fill="#0C4499"/>
<path d="M1027.04 107.162H1027.99V111.903H1027.04V107.162ZM1030.84 107.162H1031.79V111.903H1030.84V107.162ZM1033.68 107.162H1034.63V111.903H1033.68V107.162ZM1036.53 107.162H1037.48V111.903H1036.53V107.162ZM1039.37 107.162H1040.32V111.903H1039.37V107.162ZM1042.22 107.162H1043.17V111.903H1042.22V107.162ZM1045.06 107.162H1046.01V111.903H1045.06V107.162ZM1048.86 107.162H1049.8V111.903H1048.86V107.162ZM1051.7 107.162H1052.65V111.903H1051.7V107.162ZM1054.55 107.162H1055.49V111.903H1054.55V107.162Z" fill="#136FFB"/>
<path d="M1057.39 107.162H1058.34V111.903H1057.39V107.162ZM1061.19 107.162H1062.13V111.903H1061.19V107.162ZM1064.03 107.162H1064.98V111.903H1064.03V107.162Z" fill="#0C4499"/>
<path d="M1026.1 105.265H1056.44V107.162H1026.1V105.265Z" fill="#C1E8FA"/>
<path d="M1056.44 105.265H1067.82V107.162H1056.44V105.265Z" fill="#136FFB"/>
<path d="M650.557 116.645H743.493V147.94H650.557V116.645Z" fill="#C1E8FA"/>
<path d="M755.822 116.645H650.557L653.402 77.7634H752.977L755.822 116.645Z" fill="#136FFB"/>
<path d="M697.973 80.6084L720.733 107.162H675.213L697.973 80.6084Z" fill="#C1E8FA"/>
<path d="M723.578 109.058H672.368L697.973 77.7634L723.578 109.058ZM679.007 106.213H716.94L697.973 82.5051L679.007 106.213Z" fill="white"/>
<path d="M695.128 91.04H701.767V100.523H695.128V91.04ZM665.73 121.387H684.697V139.405H665.73V121.387ZM723.578 126.128H738.752V139.405H723.578V126.128Z" fill="white"/>
<path d="M702.715 127.077H713.147V147.94H702.715V127.077Z" fill="#136FFB"/>
<path d="M727.372 72.0732H738.752V92.9366H727.372V72.0732Z" fill="#194995"/>
<path d="M674.265 119.49H676.162V141.302H674.265V119.49Z" fill="#C0E7FA"/>
<path d="M664.782 130.87V128.973H686.593V130.87H664.782Z" fill="#C0E7FA"/>
<path d="M697.973 113.8H745.39V117.593H697.973V113.8Z" fill="white"/>
<path d="M698.922 114.748V147.94H696.077V114.748H698.922ZM718.837 113.8V147.94H715.992V113.8H718.837ZM745.39 114.748V147.94H742.545V114.748H745.39Z" fill="white"/>
<path d="M676.162 88.1951L698.922 114.748H653.402L676.162 88.1951Z" fill="#C1E8FA"/>
<path d="M701.767 116.645H649.608L676.162 85.3501L701.767 116.645ZM657.195 113.8H695.128L676.162 91.0401L657.195 113.8Z" fill="white"/>
<path d="M672.368 98.6267H679.955V110.007H672.368V98.6267Z" fill="white"/>
<path d="M745.39 113.8H755.822V147.94H745.39V113.8Z" fill="#194995"/>
<path d="M747.287 127.077H752.977V138.457H747.287V127.077Z" fill="#136FFB"/>
<path d="M650.557 147.94H755.822V151.733H650.557V147.94Z" fill="#194995"/>
<path d="M478.908 68.28H576.587V151.733H478.908V68.28Z" fill="#136FFB"/>
<path d="M478.908 138.457H576.587V139.405H478.908V138.457ZM478.908 132.767H576.587V133.715H478.908V132.767ZM478.908 127.077H576.587H478.908ZM478.908 120.438H576.587V121.387H478.908V120.438ZM478.908 114.748H576.587V115.697H478.908V114.748ZM478.908 109.058H576.587V110.007H478.908V109.058ZM478.908 103.368H576.587H478.908ZM478.908 96.7301H576.587V97.6784H478.908V96.7301ZM478.908 91.0401H576.587V91.9884H478.908V91.0401ZM478.908 85.3501H576.587V86.2984H478.908V85.3501ZM478.908 78.7117H576.587V79.6601H478.908V78.7117ZM478.908 73.0217H576.587V73.9701H478.908V73.0217ZM584.173 100.523H605.985V151.733H584.173V100.523Z" fill="#0C4499"/>
<path d="M478.908 68.28H514.945V103.368H478.908V68.28Z" fill="#0C4499"/>
<path d="M471.322 97.6782H514.945V104.317H471.322V97.6782Z" fill="#C1EDFE"/>
<path d="M498.823 120.438H514.945V147.94H498.823V120.438Z" fill="#0C4499"/>
<path d="M518.738 123.283H526.325V129.922H518.738V123.283ZM531.067 123.283H538.653V129.922H531.067V123.283ZM552.878 81.5566H559.517V89.1433H552.878V81.5566ZM565.207 81.5566H572.793V89.1433H565.207V81.5566ZM495.03 119.49H514.945V123.283H495.03V119.49Z" fill="#C1EDFE"/>
<path d="M584.173 146.043H605.985V146.992H584.173V146.043ZM584.173 140.353H605.985V141.302H584.173V140.353ZM584.173 133.715H605.985V134.663H584.173V133.715ZM584.173 128.025H605.985V128.973H584.173V128.025ZM584.173 122.335H605.985V123.283H584.173V122.335ZM584.173 116.645H605.985H584.173ZM584.173 110.007H605.985V110.955H584.173V110.007ZM548.137 100.523H584.173V151.733H548.137V100.523Z" fill="#136FFB"/>
<path d="M548.137 146.043H584.173V146.992H548.137V146.043ZM548.137 140.353H584.173V141.302H548.137V140.353ZM548.137 133.715H584.173V134.663H548.137V133.715ZM548.137 128.025H584.173V128.973H548.137V128.025ZM548.137 122.335H584.173V123.283H548.137V122.335ZM548.137 116.645H584.173H548.137ZM548.137 110.007H584.173V110.955H548.137V110.007Z" fill="#0C4499"/>
<path d="M478.908 92.9368H514.945V93.8851H478.908V92.9368ZM478.908 87.2468H514.945H478.908ZM478.908 80.6085H514.945V81.5568H478.908V80.6085ZM478.908 74.9185H514.945V75.8668H478.908V74.9185Z" fill="#136FFB"/>
<path d="M544.343 99.575H587.018V106.213H544.343V99.575Z" fill="#C1EDFE"/>
<path d="M585.122 99.575H611.675V106.213H585.122V99.575Z" fill="#0C4499"/>
<path d="M471.322 147.94H548.137V151.733H471.322V147.94Z" fill="#C1EDFE"/>
<path d="M367.005 0H407.783V22.76H367.005V0Z" fill="#136FFB"/>
<path d="M288.293 0H367.005V22.76H288.293V0Z" fill="#C1E8FA"/>
<path d="M279.758 15.1733H369.85V151.733H279.758V15.1733Z" fill="#136FFB"/>
<path d="M367.005 15.1733H418.215V151.733H367.005V15.1733ZM279.758 49.3133H367.005V53.1067H279.758V49.3133ZM279.758 80.6083H367.005V84.4017H279.758V80.6083ZM279.758 112.852H367.005V116.645H279.758V112.852Z" fill="#0C4499"/>
<path d="M283.552 21.8118H363.212V48.3651H283.552V21.8118ZM283.552 55.0034H363.212V78.7118H283.552V55.0034ZM283.552 86.2984H363.212V110.007H283.552V86.2984ZM284.5 118.542H362.263V151.733H284.5V118.542Z" fill="#C1E8FA"/>
<path d="M336.658 17.0701H339.503V48.3651H336.658V17.0701ZM306.312 17.0701H310.105V48.3651H306.312V17.0701ZM336.658 54.0551H339.503V79.6601H336.658V54.0551ZM306.312 53.1067H310.105V79.6601H306.312V53.1067ZM336.658 85.3501H339.503V110.955H336.658V85.3501ZM306.312 85.3501H310.105V110.955H306.312V85.3501ZM371.747 86.2984H413.473V110.007H371.747V86.2984ZM371.747 55.0034H413.473V78.7117H371.747V55.0034ZM371.747 21.8117H414.422V48.3651H371.747V21.8117Z" fill="#136FFB"/>
<path d="M309.157 151.733V132.767H337.607V151.733" fill="white"/>
<path d="M339.503 151.733H335.71V133.715H310.105V151.733H307.26V130.87H339.503V151.733Z" fill="#136FFB"/>
<path d="M452.355 135.612C447.613 132.767 442.872 142.25 442.872 142.25C442.872 142.25 449.51 128.025 443.82 127.077C440.975 127.077 439.078 132.767 437.182 139.405C437.182 133.715 436.233 128.973 434.337 128.973C428.647 128.025 431.492 143.198 431.492 143.198L433.388 151.733H442.872C442.872 151.733 456.148 138.457 452.355 135.612Z" fill="#0C4499"/>
<path d="M952.127 141.302C951.178 140.353 948.333 140.353 947.385 142.25C946.856 143.114 946.532 144.087 946.437 145.095C946.437 142.25 945.488 133.715 941.695 133.715C938.85 133.715 938.85 141.302 938.85 145.095C937.902 141.302 936.005 139.405 934.108 139.405C928.418 139.405 935.057 151.733 935.057 151.733H948.333L950.23 148.888C951.009 147.703 951.646 146.43 952.127 145.095C952.254 144.469 952.254 143.824 952.127 143.198C952.344 142.585 952.344 141.915 952.127 141.302Z" fill="#F2AF34"/>
<path d="M1094.38 137.508H1095.33C1099.23 139.11 1103.45 139.761 1107.65 139.405C1113.34 139.405 1118.09 137.508 1121.88 134.663C1132.31 124.232 1119.03 113.8 1109.55 111.903C1103.86 110.007 1097.22 110.955 1092.48 113.8C1087.74 116.645 1084.89 122.335 1086.79 128.025C1087.28 130.068 1088.21 131.977 1089.52 133.617C1090.83 135.257 1092.49 136.585 1094.38 137.508Z" fill="#0C4499"/>
<path d="M1097.22 115.697L1098.17 116.645C1101.19 117.807 1104.46 118.134 1107.65 117.593C1111.45 117.593 1115.24 116.645 1117.14 113.8C1124.72 105.265 1115.24 96.73 1108.6 94.8333C1106.55 94.1155 1104.35 93.913 1102.2 94.2437C1100.05 94.5745 1098.02 95.4282 1096.27 96.73C1094.55 98.0438 1093.21 99.7871 1092.38 101.785C1091.55 103.782 1091.25 105.964 1091.53 108.11C1091.93 109.688 1092.64 111.17 1093.62 112.472C1094.59 113.774 1095.82 114.87 1097.22 115.697Z" fill="#0C4499"/>
<path d="M1104.81 116.645H1105.76V151.733H1104.81V116.645Z" fill="#0C4499"/>
<path d="M62.59 129.922C61.6417 124.232 57.8483 119.49 56.9 113.8C55.0033 109.058 55.9517 103.368 54.055 98.6268C52.9482 96.4323 51.254 94.5882 49.161 93.2998C47.0681 92.0113 44.6586 91.3291 42.2008 91.3291C39.7431 91.3291 37.3336 92.0113 35.2406 93.2998C33.1477 94.5882 31.4535 96.4323 30.3467 98.6268C27.5017 103.368 28.45 109.058 27.5017 113.8L20.8633 129.922C19.9599 133.903 20.192 138.058 21.5332 141.914C22.8744 145.77 25.2709 149.172 28.45 151.733H55.0033C58.1824 149.172 60.5789 145.77 61.9201 141.914C63.2613 138.058 63.4934 133.903 62.59 129.922Z" fill="#136FFB"/>
<path d="M42.675 107.162H43.6233V151.733H42.675V107.162Z" fill="#0C4499"/>
<path d="M287.345 141.302C286.397 140.353 283.552 140.353 282.603 142.25C282.074 143.114 281.75 144.087 281.655 145.095C281.655 142.25 280.707 133.715 276.913 133.715C274.068 133.715 274.068 141.302 274.068 145.095C272.172 141.302 271.223 139.405 269.327 139.405C263.637 139.405 270.275 151.733 270.275 151.733H283.552L285.448 148.888C286.228 147.703 286.864 146.43 287.345 145.095C287.473 144.469 287.473 143.824 287.345 143.198C287.562 142.585 287.562 141.915 287.345 141.302ZM79.66 135.612C77.7633 132.767 74.9183 133.715 73.0217 135.612C71.9307 137.323 71.2792 139.278 71.125 141.302C71.125 135.612 71.125 122.335 65.435 122.335C60.6933 122.335 60.6933 135.612 60.6933 141.302C59.745 134.663 56.9 131.818 54.055 131.818C46.4683 132.767 55.9517 151.733 55.9517 151.733H74.9183L77.7633 146.992C78.571 145.158 79.2059 143.253 79.66 141.302C79.9155 140.05 79.9155 138.76 79.66 137.508C79.7661 136.881 79.7661 136.239 79.66 135.612Z" fill="#F2AF34"/>
</g>
<defs>
<clipPath id="clip0">
<rect width="1138" height="151.733" fill="white"/>
</clipPath>
</defs>
</svg>
