<svg width="32" height="34" viewBox="0 0 32 34" fill="none" xmlns="http://www.w3.org/2000/svg">
<path fill-rule="evenodd" clip-rule="evenodd" d="M26 18H29C29.7956 18 30.5587 18.3161 31.1213 18.8787C31.6839 19.4413 32 20.2044 32 21C32 21.7957 31.6839 22.5587 31.1213 23.1213C30.5587 23.6839 29.7956 24 29 24H3C2.20435 24 1.44129 23.6839 0.878679 23.1213C0.31607 22.5587 0 21.7957 0 21C0 20.2044 0.31607 19.4413 0.878679 18.8787C1.44129 18.3161 2.20435 18 3 18H6L7.117 7.951C7.35956 5.76456 8.39994 3.74436 10.039 2.27709C11.678 0.809813 13.8006 -0.00146484 16.0005 -0.00146484C18.2004 -0.00146484 20.323 0.809813 21.962 2.27709C23.6011 3.74436 24.6414 5.76456 24.884 7.951L26 18Z" fill="#383c44"/>
<path opacity="0.3" d="M20 30C20 27.7909 18.2091 26 16 26C13.7909 26 12 27.7909 12 30C12 32.2091 13.7909 34 16 34C18.2091 34 20 32.2091 20 30Z" fill="#383c44"/>
</svg>
