<svg width="22" height="22" viewBox="0 0 22 22" fill="none" xmlns="http://www.w3.org/2000/svg">
<path d="M1.96133 18.9669H20.0389C20.2947 18.9669 20.5505 18.7533 20.5505 18.4542V6.36492C20.5505 6.06589 20.3373 5.85229 20.0389 5.85229H1.96133C1.70552 5.85229 1.44971 6.06589 1.44971 6.36492V18.497C1.44971 18.7533 1.66289 18.9669 1.96133 18.9669Z" fill="#1A1A1A"/>
<path d="M0 20.7612C0 21.3593 0.511628 22.0001 1.10853 22.0001H20.8915C21.4457 22.0001 22 21.402 22 20.7612H0Z" fill="#1A1A1A"/>
<path d="M20.1667 18.9668H1.83333L0 20.761H22L20.1667 18.9668Z" fill="#E8E8E8"/>
<path d="M19.5273 19.1377H2.4304L1.8335 19.8639H20.1668L19.5273 19.1377Z" fill="#BFBEBE"/>
<path d="M12.8761 20.2058H9.12413L8.82568 20.5903H13.1745L12.8761 20.2058Z" fill="#212528"/>
<path d="M19.3992 6.96289H2.55811V17.8988H19.3992V6.96289Z" fill="#353535"/>
<path d="M11.0001 6.10864C11.1707 6.10864 11.2986 6.2368 11.2986 6.40767C11.2986 6.57855 11.1707 6.7067 11.0001 6.7067C10.8296 6.7067 10.7017 6.57855 10.7017 6.40767C10.7017 6.2368 10.8296 6.10864 11.0001 6.10864Z" fill="#353535"/>
<path d="M12.5773 21.5727H9.42229C9.29439 21.5727 9.03857 21.5727 9.03857 21.1882H13.0037C12.9611 21.5727 12.6626 21.5727 12.5773 21.5727Z" fill="#3E4347"/>
<path d="M18.0776 12.4738L16.0311 11.6621C16.0311 11.6621 17.0117 7.94564 14.3257 4.27185C11.8528 0.897088 8.74039 0 8.74039 0L8.22876 0.128155C8.22876 0.128155 10.9148 2.05049 11.6822 5.42525C12.1512 7.43302 11.8954 9.31263 11.7675 9.91069L10.0195 9.22719H9.25202L11.3838 17.1728H12.1512L18.0776 12.4738Z" fill="#5B7F38"/>
<path d="M8.22852 0.128174C8.22852 0.128174 10.0618 1.92235 11.1704 5.16896C12.0657 7.86022 11.3409 10.0389 11.3409 10.0389L9.20914 9.22721L11.3409 17.1729L17.3099 12.4738L15.2634 11.6622C15.2634 11.6622 16.244 7.94566 13.558 4.27187C11.0851 0.897106 8.22852 0.128174 8.22852 0.128174Z" fill="#83BF4F"/>
</svg>
