<svg width="16" height="22" viewBox="0 0 16 22" fill="none" xmlns="http://www.w3.org/2000/svg">
<path d="M12.8583 0L8.75732 6.19417H10.8078L15.4214 0H12.8583Z" fill="#1A1A1A"/>
<path d="M10.8078 0L6.66406 6.19417H8.75727L12.8582 0H10.8078Z" fill="#E8E8E8"/>
<path d="M8.75721 0L4.61353 6.19417H6.66401L10.8077 0H8.75721Z" fill="#ED1C2E"/>
<path d="M7.68934 22C11.8653 22 15.2505 18.6148 15.2505 14.4388C15.2505 10.2629 11.8653 6.87769 7.68934 6.87769C3.51342 6.87769 0.128174 10.2629 0.128174 14.4388C0.128174 18.6148 3.51342 22 7.68934 22Z" fill="#FFCE31"/>
<path d="M11.1495 7.21938C11.1495 7.39026 10.9787 7.56113 10.8078 7.56113H4.61362C4.44275 7.56113 4.27187 7.39026 4.27187 7.21938V5.85239C4.27187 5.68152 4.44275 5.51064 4.61362 5.51064H10.8078C10.9787 5.51064 11.1495 5.68152 11.1495 5.85239V7.21938ZM3.93013 4.82715C3.75925 4.82715 3.58838 4.99802 3.58838 5.1689V8.28734C3.58838 8.45822 3.75925 8.62909 3.93013 8.62909H11.4913C11.6622 8.62909 11.833 8.45822 11.833 8.28734V5.1689C11.833 4.99802 11.6622 4.82715 11.4913 4.82715H3.93013Z" fill="#FFCE31"/>
<g opacity="0.5">
<path opacity="0.5" d="M1.19623 15.3358C1.19623 11.2348 4.35739 7.90278 8.37293 7.60375C8.15934 7.60375 7.98846 7.56104 7.77487 7.56104C3.93021 7.56104 0.769043 10.6795 0.769043 14.5669C0.769043 15.7203 1.06807 16.7882 1.53798 17.7707C1.3671 17.0018 1.19623 16.1902 1.19623 15.3358Z" fill="#89664C"/>
</g>
<g opacity="0.33">
<path opacity="0.33" d="M10.6369 20.2913C14.0544 17.9845 15.0796 13.5417 13.1146 10.1243C13.2427 10.2524 13.3709 10.4233 13.4563 10.5942C15.5922 13.7553 14.7379 18.0272 11.4913 20.2058C10.5514 20.8466 9.48349 21.2311 8.41553 21.3592C9.18446 21.1029 9.91067 20.7612 10.6369 20.2913Z" fill="white"/>
</g>
<path d="M4.61359 6.19417H6.66408L2.56311 0H0L4.61359 6.19417Z" fill="#ED1C2E"/>
<path d="M6.66396 6.19417H8.75716L4.61347 0H2.56299L6.66396 6.19417Z" fill="#E8E8E8"/>
<g opacity="0.5">
<path opacity="0.5" d="M8.07382 1.02515L7.00586 2.56301L9.44081 6.19408H10.8078L11.1495 5.68146L8.07382 1.02515Z" fill="#3E4347"/>
</g>
<path d="M8.75721 6.19417H10.8077L6.66401 0H4.61353L8.75721 6.19417Z" fill="#1A1A1A"/>
<g opacity="0.5">
<path opacity="0.5" d="M6.38892 12.8712V13.1385C6.65623 13.1385 6.89384 13.0791 7.10175 12.99V12.6335C6.89384 12.7821 6.65623 12.8415 6.38892 12.8712Z" fill="#89664C"/>
</g>
<g opacity="0.5">
<path opacity="0.5" d="M8.31964 11.2375H8.08203V16.7323H8.31964V11.2375Z" fill="#89664C"/>
</g>
<g opacity="0.5">
<path opacity="0.5" d="M9.03235 16.97V17.6828H6.38892V17.9204H9.26996V16.97H9.03235Z" fill="#89664C"/>
</g>
<g opacity="0.33">
<path opacity="0.33" d="M9.03242 16.7324H8.31958V16.97H9.03242V16.7324Z" fill="white"/>
</g>
<g opacity="0.33">
<path opacity="0.33" d="M7.33943 11.2376H8.05226V11H7.10181C7.10181 11.5346 6.68599 11.9504 6.15137 11.9504V12.9009C6.24047 12.9009 6.29987 12.9009 6.38898 12.8712V12.1584C6.92361 12.1881 7.33943 11.7425 7.33943 11.2376Z" fill="white"/>
</g>
<g opacity="0.33">
<path opacity="0.33" d="M7.33943 16.9699V12.8711C7.25032 12.9008 7.19092 12.9602 7.10181 12.9899V16.7323H6.15137V17.6827H6.38898V16.9699H7.33943Z" fill="white"/>
</g>
</svg>
