<svg width="22" height="23" viewBox="0 0 22 23" fill="none" xmlns="http://www.w3.org/2000/svg">
<path d="M5.16504 18.2526C4.99429 18.2084 4.82354 18.1643 4.65279 18.1202C4.48205 18.0761 4.3113 17.9878 4.18324 17.8996C3.84174 17.7231 3.54293 17.5466 3.24412 17.326C2.6465 16.8847 2.17694 16.3111 1.79275 15.6934C1.45126 15.0315 1.19513 14.2814 1.15245 13.5754C1.10976 13.2224 1.15245 12.8253 1.19513 12.4723C1.23782 12.2958 1.23782 12.1193 1.28051 11.9428C1.3232 11.7663 1.36588 11.5898 1.45126 11.4133L1.49394 11.9428C1.49394 12.1193 1.53663 12.2958 1.53663 12.4723C1.57932 12.8253 1.62201 13.1342 1.70738 13.4872C1.87813 14.149 2.09156 14.7668 2.39038 15.3404C2.68919 15.914 3.11606 16.4435 3.54293 16.9288C3.75636 17.1495 4.01249 17.4142 4.26861 17.6348C4.39667 17.7672 4.52473 17.8554 4.65279 17.9878L5.16504 18.2526Z" fill="#ED1C2E"/>
<path d="M5.07977 19.6202C4.95171 19.6643 4.82365 19.7084 4.69559 19.7526C4.56753 19.7967 4.43947 19.8408 4.31141 19.8408C4.05528 19.8849 3.75647 19.8849 3.50035 19.8849C2.94542 19.8408 2.39048 19.7084 1.87824 19.3996C1.36599 19.1348 0.939118 18.6936 0.640308 18.2524C0.426872 18.0317 0.29881 17.767 0.170749 17.5022C0.128062 17.3699 0.0853744 17.2375 0.0426872 17.1051C0.0426872 16.9728 0 16.8404 0 16.708C0.0853744 16.7963 0.170749 16.9286 0.256123 17.0169C0.341497 17.1051 0.426872 17.2375 0.512246 17.3257C0.682995 17.5022 0.853744 17.7229 1.02449 17.8552C1.36599 18.2082 1.75017 18.473 2.17705 18.7377C2.60392 18.9583 3.03079 19.1348 3.50035 19.2672C3.75647 19.3555 3.96991 19.3996 4.22603 19.4437C4.35409 19.4878 4.48215 19.4878 4.61022 19.5319C4.78096 19.5761 4.90903 19.5761 5.07977 19.6202Z" fill="#ED1C2E"/>
<path d="M13.3184 1.17676C13.4891 1.22088 13.6599 1.26501 13.8306 1.35325C14.0014 1.4415 14.1721 1.48563 14.3429 1.57387C14.6843 1.75037 14.9832 1.97099 15.2393 2.19161C15.7942 2.67698 16.3065 3.25059 16.648 3.91245C16.9895 4.57431 17.1602 5.32442 17.1602 6.07453C17.1602 6.42752 17.1175 6.82464 17.0748 7.17763C17.0321 7.35413 16.9895 7.53063 16.9468 7.70712C16.9041 7.88362 16.8187 8.06011 16.7333 8.19249V7.663C16.7333 7.4865 16.7333 7.31 16.6906 7.13351C16.648 6.78052 16.6053 6.47165 16.5626 6.11866C16.4345 5.45679 16.2211 4.83906 15.965 4.22132C15.6662 3.64771 15.282 3.07409 14.8551 2.58873C14.6417 2.32398 14.3855 2.10336 14.1294 1.83862C14.0014 1.70625 13.8733 1.618 13.7452 1.48563L13.3184 1.17676Z" fill="#ED1C2E"/>
<path d="M16.5625 1C16.6906 1.04412 16.8186 1.08825 16.9467 1.13237C17.0747 1.1765 17.2028 1.26474 17.2882 1.30887C17.5016 1.44124 17.7577 1.61774 17.9285 1.79423C18.3127 2.19135 18.6542 2.63259 18.8676 3.16208C19.081 3.69157 19.1237 4.26518 19.081 4.79467C19.0384 5.05942 18.9957 5.32416 18.9103 5.5889C18.8676 5.72128 18.8249 5.85365 18.7395 5.9419C18.6969 6.07427 18.6115 6.16252 18.5261 6.29489C18.5261 6.16252 18.5261 6.03015 18.5261 5.89777C18.5261 5.7654 18.5261 5.63303 18.5261 5.50066C18.5261 5.23591 18.4834 5.01529 18.4834 4.75055C18.4407 4.26518 18.3127 3.82394 18.1419 3.3827C17.9712 2.94146 17.7577 2.54434 17.5016 2.1031C17.3736 1.88248 17.2028 1.70599 17.0747 1.48536C16.9894 1.39712 16.904 1.26474 16.8186 1.1765C16.7332 1.22062 16.6479 1.13237 16.5625 1Z" fill="#ED1C2E"/>
<path d="M2.94531 6.69178C2.21963 7.04478 1.96351 7.92726 2.30501 8.67737L6.91522 18.6494L9.47645 17.3698L4.86624 7.39777C4.48205 6.64766 3.671 6.29467 2.94531 6.69178Z" fill="#FAC91B"/>
<path d="M15.1113 14.6342L17.8433 13.3105L12.5501 1.88239C12.2086 1.13228 11.3121 0.779285 10.5438 1.1764C9.7754 1.52939 9.47659 2.50012 9.86077 3.25023L15.1113 14.6342Z" fill="#FAC91B"/>
<path d="M10.5438 1.13227C10.4584 1.1764 10.373 1.22052 10.3303 1.26465C11.0133 1.08815 11.7817 1.39702 12.0805 2.103L17.3737 13.487L17.8433 13.2664L12.5501 1.88238C12.2086 1.13227 11.3121 0.77928 10.5438 1.13227Z" fill="#FFA012"/>
<path d="M9.47663 17.3699L12.294 16.002L6.9154 4.39737C6.53122 3.60314 5.5921 3.25015 4.82373 3.60314C4.05536 4.00026 3.71386 4.97099 4.09805 5.76522L9.47663 17.3699Z" fill="#FAC91B"/>
<path d="M4.82379 3.60315C4.73841 3.64728 4.65304 3.6914 4.61035 3.73553C5.33603 3.51491 6.1044 3.8679 6.4459 4.61801L9.7755 11.8544L10.5866 12.3397L6.91546 4.39739C6.53127 3.55903 5.59216 3.20604 4.82379 3.60315Z" fill="#FFA012"/>
<path d="M11.867 15.0756L14.6843 13.7077L9.26306 2.05899C8.87887 1.26476 7.93976 0.911767 7.17139 1.26476C6.40302 1.66188 6.06152 2.63261 6.44571 3.42684L11.867 15.0756Z" fill="#FAC91B"/>
<path d="M7.21417 1.26491C7.12879 1.30903 7.04342 1.35316 7.00073 1.39728C7.72641 1.17666 8.49478 1.52965 8.83628 2.27976L12.6354 10.4427L13.4465 10.9281L9.26315 2.05914C8.92166 1.22078 7.98254 0.911914 7.21417 1.26491Z" fill="#FFA012"/>
<path d="M2.94537 6.69177C2.86 6.73589 2.77462 6.78001 2.73193 6.82414C3.37224 6.64764 4.09792 7.00064 4.39673 7.6625L7.12871 13.6192L7.93977 14.1046L4.86629 7.44188C4.48211 6.64764 3.67105 6.29465 2.94537 6.69177Z" fill="#FFA012"/>
<path d="M21.557 5.54475C20.5752 4.75052 18.9531 5.633 18.142 8.36869C17.5871 10.266 17.5444 10.8396 16.3492 11.4133L15.7089 10.0013C15.7089 10.0013 5.29318 15.2079 5.67736 16.0463C5.67736 16.0463 6.91529 20.0616 9.04965 21.9148C12.2085 24.6946 19.5507 21.6942 19.8922 14.5019C20.1056 10.266 22.6242 6.42723 21.557 5.54475Z" fill="#FAC91B"/>
<path d="M21.557 5.54477C21.3863 5.4124 21.1728 5.32415 20.9167 5.28003C20.9594 5.32415 21.0021 5.32415 21.0448 5.36828C22.1547 6.25076 21.0021 8.28047 20.3618 10.0896C19.8495 11.5456 19.4227 13.0017 19.508 14.4578C19.8069 20.7235 13.7026 23.7239 10.0315 22.5767C13.6172 24.1651 20.3191 21.1647 19.9776 14.6343C19.8922 13.1782 20.3191 11.8104 20.8313 10.266C21.5143 8.45696 22.6242 6.42726 21.557 5.54477Z" fill="#FFA012"/>
<path d="M16.6907 11.2366C14.4283 11.5013 11.056 14.8547 13.4038 18.5612C11.6963 14.8547 14.5137 12.3397 16.3066 11.4572C16.52 11.3248 16.6907 11.2366 16.6907 11.2366Z" fill="#FFA012"/>
</svg>
