<svg width="40" height="39" viewBox="0 0 40 39" fill="none" xmlns="http://www.w3.org/2000/svg">
<path fill-rule="evenodd" clip-rule="evenodd" d="M2 0H38C38.5304 0 39.0391 0.206287 39.4142 0.573479C39.7893 0.940672 40 1.43869 40 1.95798V15.6638C40 16.1831 39.7893 16.6812 39.4142 17.0483C39.0391 17.4155 38.5304 17.6218 38 17.6218H2C1.46957 17.6218 0.960859 17.4155 0.585786 17.0483C0.210714 16.6812 0 16.1831 0 15.6638V1.95798C0 1.43869 0.210714 0.940672 0.585786 0.573479C0.960859 0.206287 1.46957 0 2 0ZM6 9.7899C5.46957 9.7899 4.96086 9.99619 4.58579 10.3634C4.21071 10.7306 4 11.2286 4 11.7479C4 12.2672 4.21071 12.7652 4.58579 13.1324C4.96086 13.4996 5.46957 13.7059 6 13.7059H34C34.5304 13.7059 35.0391 13.4996 35.4142 13.1324C35.7893 12.7652 36 12.2672 36 11.7479C36 11.2286 35.7893 10.7306 35.4142 10.3634C35.0391 9.99619 34.5304 9.7899 34 9.7899H6Z" fill="#34445C"/>
<path opacity="0.3" d="M30.583 22.1148L33.417 24.8785C32.8734 25.4126 32.4535 26.0549 32.1856 26.7618C31.9178 27.4687 31.8082 28.2237 31.8643 28.9757C31.9205 29.7276 32.141 30.459 32.511 31.1202C32.881 31.7815 33.3919 32.3572 34.009 32.8083L35.2 33.6777L32.8 36.8104L31.613 35.9421C30.5368 35.1553 29.6459 34.1512 29.0005 32.998C28.3552 31.8447 27.9706 30.5692 27.8726 29.2577C27.7747 27.9463 27.9657 26.6295 28.4328 25.3966C28.8999 24.1638 29.6321 23.0435 30.58 22.1118L30.583 22.1148ZM18.583 24.0727L21.417 26.8364C20.8734 27.3706 20.4535 28.0129 20.1856 28.7198C19.9178 29.4267 19.8082 30.1817 19.8643 30.9336C19.9205 31.6856 20.141 32.417 20.511 33.0782C20.881 33.7395 21.3919 34.3152 22.009 34.7663L23.2 35.6357L20.8 38.7684L19.613 37.9001C18.5368 37.1132 17.6459 36.1092 17.0006 34.956C16.3552 33.8027 15.9706 32.5272 15.8726 31.2157C15.7747 29.9043 15.9657 28.5875 16.4328 27.3546C16.8999 26.1217 17.6321 25.0015 18.58 24.0698L18.583 24.0727ZM6.58297 22.1148L9.41697 24.8785C8.87345 25.4126 8.45353 26.0549 8.18565 26.7618C7.91778 27.4687 7.8082 28.2237 7.86434 28.9757C7.92047 29.7276 8.14102 30.459 8.51103 31.1202C8.88105 31.7815 9.39189 32.3572 10.009 32.8083L11.2 33.6777L8.79997 36.8104L7.61297 35.9421C6.53679 35.1553 5.64588 34.1512 5.00056 32.998C4.35524 31.8447 3.97057 30.5692 3.87262 29.2577C3.77467 27.9463 3.96571 26.6295 4.4328 25.3966C4.8999 24.1638 5.63215 23.0435 6.57997 22.1118L6.58297 22.1148Z" fill="#34445C"/>
</svg>
