<svg width="18" height="19" viewBox="0 0 18 19" fill="none" xmlns="http://www.w3.org/2000/svg">
<path opacity="0.6" d="M1.28629 7.95306C0.576261 7.95306 0.000671387 8.54575 0.000671387 9.27686C0.000671387 10.008 0.576261 10.6006 1.28629 10.6006L16.7137 10.6006C17.4237 10.6006 17.9993 10.008 17.9993 9.27686C17.9993 8.54575 17.4237 7.95306 16.7137 7.95306L1.28629 7.95306Z" fill="white"/>
<path d="M8.09104 16.2837C7.85003 16.5319 7.71463 16.8686 7.71463 17.2196C7.71463 17.5706 7.85003 17.9073 8.09104 18.1555C8.33213 18.4037 8.65907 18.5431 8.99997 18.5431C9.34087 18.5431 9.66782 18.4037 9.90891 18.1555L17.6226 10.2128C17.8569 9.97156 17.9917 9.64648 17.9989 9.30537C18.0061 8.96426 17.8851 8.63347 17.6612 8.382L10.5903 0.439289C10.4762 0.31111 10.3387 0.207327 10.1857 0.133863C10.0327 0.0604019 9.86706 0.0186996 9.69837 0.0111408C9.52968 0.00358009 9.3612 0.0303097 9.20254 0.0898037C9.04389 0.149298 8.89817 0.240389 8.77371 0.357878C8.64922 0.475342 8.54843 0.616905 8.47709 0.774485C8.40574 0.932062 8.36524 1.10257 8.3579 1.27627C8.35056 1.44996 8.37652 1.62345 8.43429 1.78682C8.49207 1.95018 8.58054 2.10023 8.69464 2.22839L14.9344 9.23716L8.09104 16.2837Z" fill="white"/>
</svg>
