<svg width="16" height="17" viewBox="0 0 16 17" fill="none" xmlns="http://www.w3.org/2000/svg">
<path opacity="0.3" fill-rule="evenodd" clip-rule="evenodd" d="M1.45454 9.43861H5.33333C5.7191 9.43861 6.08907 9.5964 6.36185 9.87728C6.63463 10.1582 6.78787 10.5391 6.78787 10.9363V14.9303C6.78787 15.3275 6.63463 15.7084 6.36185 15.9893C6.08907 16.2702 5.7191 16.428 5.33333 16.428H1.45454C1.06877 16.428 0.698806 16.2702 0.426026 15.9893C0.153246 15.7084 0 15.3275 0 14.9303V10.9363C0 10.5391 0.153246 10.1582 0.426026 9.87728C0.698806 9.5964 1.06877 9.43861 1.45454 9.43861ZM10.1818 0.452271H14.0606C14.4464 0.452271 14.8163 0.610066 15.0891 0.890943C15.3619 1.17182 15.5151 1.55277 15.5151 1.94999V5.94392C15.5151 6.34114 15.3619 6.72209 15.0891 7.00297C14.8163 7.28385 14.4464 7.44164 14.0606 7.44164H10.1818C9.79604 7.44164 9.42607 7.28385 9.15329 7.00297C8.88051 6.72209 8.72726 6.34114 8.72726 5.94392V1.94999C8.72726 1.55277 8.88051 1.17182 9.15329 0.890943C9.42607 0.610066 9.79604 0.452271 10.1818 0.452271ZM10.1818 9.43861H14.0606C14.4464 9.43861 14.8163 9.5964 15.0891 9.87728C15.3619 10.1582 15.5151 10.5391 15.5151 10.9363V14.9303C15.5151 15.3275 15.3619 15.7084 15.0891 15.9893C14.8163 16.2702 14.4464 16.428 14.0606 16.428H10.1818C9.79604 16.428 9.42607 16.2702 9.15329 15.9893C8.88051 15.7084 8.72726 15.3275 8.72726 14.9303V10.9363C8.72726 10.5391 8.88051 10.1582 9.15329 9.87728C9.42607 9.5964 9.79604 9.43861 10.1818 9.43861Z" fill="#34445C"/>
</svg>
