<svg width="20" height="18" viewBox="0 0 20 18" fill="none" xmlns="http://www.w3.org/2000/svg">
<path opacity="0.3" d="M3.76471 7.70714C3.76471 7.96417 3.66555 8.21067 3.48904 8.39242C3.31254 8.57416 3.07315 8.67627 2.82353 8.67627C2.57392 8.67627 2.33452 8.57416 2.15802 8.39242C1.98151 8.21067 1.88235 7.96417 1.88235 7.70714V3.83061C1.88235 3.05952 2.17983 2.32002 2.70935 1.77477C3.23886 1.22953 3.95704 0.923218 4.70589 0.923218C5.45473 0.923218 6.17291 1.22953 6.70243 1.77477C7.23194 2.32002 7.52942 3.05952 7.52942 3.83061C7.52942 4.08764 7.43026 4.33414 7.25375 4.51589C7.07725 4.69764 6.83786 4.79974 6.58824 4.79974C6.33863 4.79974 6.09923 4.69764 5.92273 4.51589C5.74622 4.33414 5.64706 4.08764 5.64706 3.83061C5.64706 3.57358 5.5479 3.32708 5.3714 3.14533C5.19489 2.96359 4.9555 2.86148 4.70589 2.86148C4.45627 2.86148 4.21688 2.96359 4.04037 3.14533C3.86387 3.32708 3.76471 3.57358 3.76471 3.83061V7.70714Z" fill="#34445C"/>
<path opacity="0.3" d="M3.76471 17.3983H1.88235C1.88235 14.7221 3.98918 13.5219 6.58824 13.5219H12.2353C14.8344 13.5219 16.9412 14.7221 16.9412 17.3983H15.0588C15.0588 15.7925 13.7948 15.4601 12.2353 15.4601H6.58824C5.02871 15.4601 3.76471 15.7925 3.76471 17.3983Z" fill="#34445C"/>
<path fill-rule="evenodd" clip-rule="evenodd" d="M0 6.73804H19.7647L19.2885 11.1475C19.1611 12.333 18.6135 13.4285 17.7506 14.2242C16.8877 15.0199 15.7701 15.4599 14.6118 15.4601H5.15294C3.99452 15.46 2.87681 15.02 2.01382 14.2243C1.15083 13.4286 0.603191 12.3331 0.475765 11.1475L0 6.73804ZM16.2353 9.16083C16.2546 9.80355 16.1185 10.4412 15.8393 11.0163C15.56 11.5914 15.1463 12.0861 14.6353 12.4558C14.4855 12.5715 14.3865 12.7437 14.36 12.9345C14.3336 13.1253 14.3818 13.3192 14.4941 13.4734C14.6064 13.6276 14.7737 13.7296 14.959 13.7568C15.1443 13.7841 15.3326 13.7344 15.4824 13.6188C16.1687 13.1136 16.7246 12.4433 17.1019 11.6664C17.4792 10.8894 17.6663 10.0293 17.6471 9.16083C17.6471 8.96806 17.5727 8.78319 17.4403 8.64688C17.3079 8.51057 17.1284 8.43399 16.9412 8.43399C16.754 8.43399 16.5744 8.51057 16.442 8.64688C16.3097 8.78319 16.2353 8.96806 16.2353 9.16083Z" fill="#34445C"/>
</svg>
