<svg width="24" height="25" viewBox="0 0 24 25" fill="none" xmlns="http://www.w3.org/2000/svg">
<g filter="url(#filter0_d)">
<path d="M8.66338 1.03656H3.90092C2.91458 1.03656 2.11499 1.85988 2.11499 2.8755V7.77935C2.11499 8.79497 2.91458 9.61829 3.90092 9.61829H8.66338C9.64972 9.61829 10.4493 8.79497 10.4493 7.77935V2.8755C10.4493 1.85988 9.64972 1.03656 8.66338 1.03656Z" fill="#34445C"/>
<path opacity="0.9" fill-rule="evenodd" clip-rule="evenodd" d="M3.90092 12.6832H8.66338C9.13704 12.6832 9.5913 12.877 9.92622 13.2219C10.2611 13.5667 10.4493 14.0345 10.4493 14.5222V19.426C10.4493 19.9137 10.2611 20.3815 9.92622 20.7264C9.5913 21.0712 9.13704 21.265 8.66338 21.265H3.90092C3.42726 21.265 2.973 21.0712 2.63808 20.7264C2.30315 20.3815 2.11499 19.9137 2.11499 19.426V14.5222C2.11499 14.0345 2.30315 13.5667 2.63808 13.2219C2.973 12.877 3.42726 12.6832 3.90092 12.6832ZM14.6165 1.6496H19.3789C19.8526 1.6496 20.3068 1.84334 20.6418 2.18821C20.9767 2.53308 21.1649 3.00082 21.1649 3.48854V8.39238C21.1649 8.8801 20.9767 9.34784 20.6418 9.69271C20.3068 10.0376 19.8526 10.2313 19.3789 10.2313H14.6165C14.1428 10.2313 13.6886 10.0376 13.3536 9.69271C13.0187 9.34784 12.8305 8.8801 12.8305 8.39238V3.48854C12.8305 3.00082 13.0187 2.53308 13.3536 2.18821C13.6886 1.84334 14.1428 1.6496 14.6165 1.6496ZM14.6165 12.6832H19.3789C19.8526 12.6832 20.3068 12.877 20.6418 13.2219C20.9767 13.5667 21.1649 14.0345 21.1649 14.5222V19.426C21.1649 19.9137 20.9767 20.3815 20.6418 20.7264C20.3068 21.0712 19.8526 21.265 19.3789 21.265H14.6165C14.1428 21.265 13.6886 21.0712 13.3536 20.7264C13.0187 20.3815 12.8305 19.9137 12.8305 19.426V14.5222C12.8305 14.0345 13.0187 13.5667 13.3536 13.2219C13.6886 12.877 14.1428 12.6832 14.6165 12.6832Z" fill="#8A8A8A"/>
</g>
<defs>
<filter id="filter0_d" x="0.11499" y="0.0365601" width="23.0499" height="24.2284" filterUnits="userSpaceOnUse" color-interpolation-filters="sRGB">
<feFlood flood-opacity="0" result="BackgroundImageFix"/>
<feColorMatrix in="SourceAlpha" type="matrix" values="0 0 0 0 0 0 0 0 0 0 0 0 0 0 0 0 0 0 127 0"/>
<feOffset dy="1"/>
<feGaussianBlur stdDeviation="1"/>
<feColorMatrix type="matrix" values="0 0 0 0 0 0 0 0 0 0 0 0 0 0 0 0 0 0 0.15 0"/>
<feBlend mode="normal" in2="BackgroundImageFix" result="effect1_dropShadow"/>
<feBlend mode="normal" in="SourceGraphic" in2="effect1_dropShadow" result="shape"/>
</filter>
</defs>
</svg>
