<svg width="16" height="16" viewBox="0 0 16 16" fill="none" xmlns="http://www.w3.org/2000/svg">
<path d="M5.5 0H1.5C0.671573 0 0 0.671573 0 1.5V5.5C0 6.32843 0.671573 7 1.5 7H5.5C6.32843 7 7 6.32843 7 5.5V1.5C7 0.671573 6.32843 0 5.5 0Z" fill="#34445C"/>
<path opacity="0.3" fill-rule="evenodd" clip-rule="evenodd" d="M1.5 9H5.5C5.89782 9 6.27936 9.15804 6.56066 9.43934C6.84196 9.72064 7 10.1022 7 10.5V14.5C7 14.8978 6.84196 15.2794 6.56066 15.5607C6.27936 15.842 5.89782 16 5.5 16H1.5C1.10218 16 0.720644 15.842 0.43934 15.5607C0.158035 15.2794 0 14.8978 0 14.5V10.5C0 10.1022 0.158035 9.72064 0.43934 9.43934C0.720644 9.15804 1.10218 9 1.5 9V9ZM10.5 0H14.5C14.8978 0 15.2794 0.158035 15.5607 0.43934C15.842 0.720644 16 1.10218 16 1.5V5.5C16 5.89782 15.842 6.27936 15.5607 6.56066C15.2794 6.84196 14.8978 7 14.5 7H10.5C10.1022 7 9.72064 6.84196 9.43934 6.56066C9.15804 6.27936 9 5.89782 9 5.5V1.5C9 1.10218 9.15804 0.720644 9.43934 0.43934C9.72064 0.158035 10.1022 0 10.5 0ZM10.5 9H14.5C14.8978 9 15.2794 9.15804 15.5607 9.43934C15.842 9.72064 16 10.1022 16 10.5V14.5C16 14.8978 15.842 15.2794 15.5607 15.5607C15.2794 15.842 14.8978 16 14.5 16H10.5C10.1022 16 9.72064 15.842 9.43934 15.5607C9.15804 15.2794 9 14.8978 9 14.5V10.5C9 10.1022 9.15804 9.72064 9.43934 9.43934C9.72064 9.15804 10.1022 9 10.5 9Z" fill="#34445C"/>
</svg>
