<svg width="24" height="26" viewBox="0 0 24 26" fill="none" xmlns="http://www.w3.org/2000/svg">
<g filter="url(#filter0_d)">
<path d="M9.33333 0.953003H5.45454C4.65122 0.953003 4 1.62356 4 2.45073V6.44466C4 7.27183 4.65122 7.94238 5.45454 7.94238H9.33333C10.1367 7.94238 10.7879 7.27183 10.7879 6.44466V2.45073C10.7879 1.62356 10.1367 0.953003 9.33333 0.953003Z" fill="#34445C"/>
<path opacity="0.3" fill-rule="evenodd" clip-rule="evenodd" d="M5.45454 10.4386H9.33333C9.7191 10.4386 10.0891 10.5964 10.3618 10.8773C10.6346 11.1582 10.7879 11.5391 10.7879 11.9363V15.9303C10.7879 16.3275 10.6346 16.7084 10.3618 16.9893C10.0891 17.2702 9.7191 17.428 9.33333 17.428H5.45454C5.06877 17.428 4.69881 17.2702 4.42603 16.9893C4.15325 16.7084 4 16.3275 4 15.9303V11.9363C4 11.5391 4.15325 11.1582 4.42603 10.8773C4.69881 10.5964 5.06877 10.4386 5.45454 10.4386ZM14.1818 1.45227H18.0606C18.4464 1.45227 18.8163 1.61007 19.0891 1.89094C19.3619 2.17182 19.5151 2.55277 19.5151 2.94999V6.94392C19.5151 7.34114 19.3619 7.72209 19.0891 8.00297C18.8163 8.28385 18.4464 8.44164 18.0606 8.44164H14.1818C13.796 8.44164 13.4261 8.28385 13.1533 8.00297C12.8805 7.72209 12.7273 7.34114 12.7273 6.94392V2.94999C12.7273 2.55277 12.8805 2.17182 13.1533 1.89094C13.4261 1.61007 13.796 1.45227 14.1818 1.45227ZM14.1818 10.4386H18.0606C18.4464 10.4386 18.8163 10.5964 19.0891 10.8773C19.3619 11.1582 19.5151 11.5391 19.5151 11.9363V15.9303C19.5151 16.3275 19.3619 16.7084 19.0891 16.9893C18.8163 17.2702 18.4464 17.428 18.0606 17.428H14.1818C13.796 17.428 13.4261 17.2702 13.1533 16.9893C12.8805 16.7084 12.7273 16.3275 12.7273 15.9303V11.9363C12.7273 11.5391 12.8805 11.1582 13.1533 10.8773C13.4261 10.5964 13.796 10.4386 14.1818 10.4386Z" fill="#34445C"/>
</g>
<defs>
<filter id="filter0_d" x="0" y="0.953003" width="23.5151" height="24.475" filterUnits="userSpaceOnUse" color-interpolation-filters="sRGB">
<feFlood flood-opacity="0" result="BackgroundImageFix"/>
<feColorMatrix in="SourceAlpha" type="matrix" values="0 0 0 0 0 0 0 0 0 0 0 0 0 0 0 0 0 0 127 0"/>
<feOffset dy="4"/>
<feGaussianBlur stdDeviation="2"/>
<feColorMatrix type="matrix" values="0 0 0 0 0 0 0 0 0 0 0 0 0 0 0 0 0 0 0.25 0"/>
<feBlend mode="normal" in2="BackgroundImageFix" result="effect1_dropShadow"/>
<feBlend mode="normal" in="SourceGraphic" in2="effect1_dropShadow" result="shape"/>
</filter>
</defs>
</svg>
