<svg width="17" height="18" viewBox="0 0 17 18" fill="none" xmlns="http://www.w3.org/2000/svg">
<path fill-rule="evenodd" clip-rule="evenodd" d="M0.883644 5.46269L7.82861 1.09253C7.97359 1.00128 8.14022 0.953003 8.31013 0.953003C8.48005 0.953003 8.64668 1.00128 8.79166 1.09253L15.7366 5.46269C16.0065 5.63255 16.2295 5.87096 16.3843 6.15506C16.539 6.43916 16.6203 6.75943 16.6203 7.08516V15.5265C16.6203 16.0308 16.4257 16.5144 16.0794 16.871C15.7331 17.2276 15.2633 17.428 14.7736 17.428H1.8467C1.35692 17.428 0.887208 17.2276 0.540885 16.871C0.194562 16.5144 0 16.0308 0 15.5265V7.08516C4.05498e-07 6.75943 0.0812605 6.43916 0.23599 6.15506C0.39072 5.87096 0.613731 5.63255 0.883644 5.46269ZM6.46344 9.82191C6.21855 9.82191 5.98369 9.92208 5.81053 10.1004C5.63737 10.2787 5.54009 10.5205 5.54009 10.7727V13.6249C5.54009 13.8771 5.63737 14.1189 5.81053 14.2972C5.98369 14.4755 6.21855 14.5757 6.46344 14.5757H10.1568C10.4017 14.5757 10.6366 14.4755 10.8097 14.2972C10.9829 14.1189 11.0802 13.8771 11.0802 13.6249V10.7727C11.0802 10.5205 10.9829 10.2787 10.8097 10.1004C10.6366 9.92208 10.4017 9.82191 10.1568 9.82191H6.46344Z" fill="#34445C"/>
</svg>
