<svg width="22" height="18" viewBox="0 0 22 18" fill="none" xmlns="http://www.w3.org/2000/svg">
<path opacity="0.3" d="M3 17.3983H1C1 14.5549 3.2385 13.2797 6 13.2797H16C18.7615 13.2797 21 14.5549 21 17.3983H19C19 15.6922 17.657 15.339 16 15.339H6C4.343 15.339 3 15.6922 3 17.3983Z" fill="#34445C"/>
<path d="M21 9.16089H1C0.447715 9.16089 0 9.62188 0 10.1906V14.3092C0 14.8779 0.447715 15.3389 1 15.3389H21C21.5523 15.3389 22 14.8779 22 14.3092V10.1906C22 9.62188 21.5523 9.16089 21 9.16089Z" fill="#34445C"/>
<path opacity="0.3" fill-rule="evenodd" clip-rule="evenodd" d="M12 8.1311H10V7.10141C10 6.82831 9.89464 6.56641 9.70711 6.3733C9.51957 6.18019 9.26522 6.07171 9 6.07171H5C4.73478 6.07171 4.48043 6.18019 4.29289 6.3733C4.10536 6.56641 4 6.82831 4 7.10141V8.1311H3C2.73478 8.1311 2.48043 8.02262 2.29289 7.82951C2.10536 7.63641 2 7.3745 2 7.10141V2.98261C2 2.43643 2.21071 1.91261 2.58579 1.5264C2.96086 1.14019 3.46957 0.923218 4 0.923218H18C18.5304 0.923218 19.0391 1.14019 19.4142 1.5264C19.7893 1.91261 20 2.43643 20 2.98261V7.10141C20 7.3745 19.8946 7.63641 19.7071 7.82951C19.5196 8.02262 19.2652 8.1311 19 8.1311H18V7.10141C18 6.82831 17.8946 6.56641 17.7071 6.3733C17.5196 6.18019 17.2652 6.07171 17 6.07171H13C12.7348 6.07171 12.4804 6.18019 12.2929 6.3733C12.1054 6.56641 12 6.82831 12 7.10141V8.1311Z" fill="#34445C"/>
</svg>
