<svg width="24" height="22" viewBox="0 0 24 22" fill="none" xmlns="http://www.w3.org/2000/svg">
<path d="M22.6752 0.280762H1.32367C0.592529 0.281092 -0.000183063 0.815504 4.24134e-08 1.47449V20.714C0.000366253 21.3728 0.593445 21.9069 1.32477 21.9067H22.6752C23.4067 21.9069 23.9998 21.3727 24 20.7135C24 20.7133 24 20.7132 24 20.713V1.4735C23.9996 0.814679 23.4066 0.280597 22.6752 0.280762Z" fill="#4267B2"/>
<path d="M16.5703 21.9067V13.5436H19.6992L20.168 10.2702H16.5703V8.18531C16.5703 7.23974 16.8616 6.59544 18.3664 6.59544H20.2734V3.67557C19.9417 3.63581 18.8033 3.54688 17.4787 3.54688C14.7131 3.54688 12.8203 5.06745 12.8203 7.8611V10.2702H9.70312V13.5436H12.8203V21.9067H16.5703Z" fill="white"/>
</svg>
