<svg width="24" height="22" viewBox="0 0 24 22" fill="none" xmlns="http://www.w3.org/2000/svg">
<path d="M19.7073 21.5365C14.5743 22.0302 9.42572 22.0302 4.29272 21.5365C2.24597 21.3397 0.629333 19.8829 0.410889 18.0385C-0.136963 13.4132 -0.136963 8.77411 0.410889 4.14886C0.629333 2.30457 2.24597 0.847843 4.29272 0.651006C9.42572 0.157347 14.5741 0.157347 19.7071 0.651006C21.754 0.847843 23.3707 2.30457 23.5891 4.14886C24.137 8.77411 24.137 13.4132 23.5891 18.0385C23.3707 19.8829 21.7542 21.3397 19.7073 21.5365Z" fill="url(#paint0_linear)"/>
<path d="M22.2837 4.93111C22.09 3.29448 20.6555 2.0017 18.8391 1.82697C14.2842 1.38906 9.71572 1.38906 5.16079 1.82697C3.34457 2.0017 1.90994 3.29448 1.71603 4.93111C1.23007 9.03564 1.23007 13.1524 1.71603 17.2568C1.90994 18.8936 3.34457 20.1863 5.16079 20.3609C9.71572 20.799 14.2842 20.799 18.8389 20.3609C20.6554 20.1863 22.09 18.8936 22.2837 17.2568C22.7699 13.1524 22.7699 9.03564 22.2837 4.93111Z" fill="url(#paint1_linear)"/>
<path d="M0.359619 17.5903C0.376099 17.7398 0.393127 17.8893 0.410889 18.0388C0.629333 19.883 2.24597 21.3397 4.29291 21.5365C9.4259 22.0301 14.5743 22.0301 19.7073 21.5365C21.7542 21.3397 23.3707 19.883 23.5891 18.0388C23.6069 17.8893 23.6239 17.7398 23.6406 17.5903H0.359619Z" fill="url(#paint2_linear)"/>
<path d="M23.9949 10.3332L19.0131 5.8442C18.4548 6.1318 17.9628 6.29135 17.5922 6.37979C17.3838 6.43012 17.2137 6.45751 17.0914 6.47252C16.5297 5.9536 15.7452 5.63135 14.8769 5.63135C13.1686 5.63135 11.7834 6.87942 11.7834 8.41921C11.7834 8.47481 11.785 8.52976 11.7891 8.58454C11.7973 8.71803 11.8162 8.8492 11.8453 8.97675C11.1321 8.96718 8.81396 8.79558 6.60315 7.08781C6.60296 7.08781 6.60296 7.08765 6.60296 7.08765H6.60278L5.56018 6.14797C5.56018 6.14797 4.33704 8.07172 6.13531 9.53148C6.21423 9.61085 6.30102 9.68922 6.39606 9.76628C6.40356 9.77387 6.41144 9.78129 6.41894 9.78888C6.18292 9.77453 5.47302 9.71084 5.06213 9.44931C5.06213 9.44931 4.97955 10.6251 6.06665 11.4907L6.94446 12.2885C6.67712 12.3085 6.38141 12.3037 6.17578 12.2225C6.17578 12.2225 6.35779 12.919 7.06128 13.4763L8.29101 14.5903C7.55328 14.9775 6.26184 15.4621 4.56189 15.3384L12.0218 21.9067C14.5849 21.9061 17.148 21.7827 19.7073 21.5365C21.7542 21.3396 23.3708 19.8828 23.5893 18.0385C23.893 15.4727 24.028 12.9026 23.9949 10.3332Z" fill="url(#paint3_linear)"/>
<path d="M19.4384 6.927C18.9073 7.17731 18.1075 7.29299 17.8424 7.32632C17.8402 7.31477 17.838 7.30371 17.8358 7.29266C18.7372 6.7902 19.0132 5.84421 19.0132 5.84421C18.4549 6.13182 17.9629 6.29138 17.5923 6.37983C17.3839 6.43015 17.2138 6.45738 17.0915 6.47256C16.5297 5.95344 15.7453 5.63135 14.877 5.63135C13.1686 5.63135 11.7834 6.87931 11.7834 8.41934C11.7834 8.47478 11.7851 8.52989 11.7891 8.58451C11.7974 8.718 11.8162 8.84918 11.8453 8.97673C11.0184 8.96568 8.03363 8.73714 5.56024 6.14799C5.56024 6.14799 4.18292 8.31356 6.49847 9.79287C6.49847 9.79287 5.56024 9.76647 5.06219 9.44948C5.06219 9.44948 4.91571 11.5362 7.58264 12.1962C7.58264 12.1962 6.64496 12.4078 6.17566 12.2228C6.17566 12.2228 6.64478 14.0187 8.98944 14.1511C8.98944 14.1511 7.3078 15.5385 4.56177 15.3388C5.91235 16.1094 7.51361 16.5554 9.23041 16.5554C14.0576 16.5554 17.9709 13.029 17.9709 8.67889C17.9709 8.62461 17.9704 8.57032 17.9691 8.51603C17.9704 8.48385 17.9709 8.45184 17.9709 8.41934C17.9709 8.39673 17.9704 8.37412 17.97 8.35152C18.8625 7.81557 19.4384 6.927 19.4384 6.927Z" fill="white"/>
<defs>
<linearGradient id="paint0_linear" x1="7.96847" y1="3.32133" x2="13.0692" y2="15.4326" gradientUnits="userSpaceOnUse">
<stop stop-color="#00C3FF"/>
<stop offset="1" stop-color="#00B0ED"/>
</linearGradient>
<linearGradient id="paint1_linear" x1="17.0757" y1="13.5476" x2="-16.078" y2="-6.18885" gradientUnits="userSpaceOnUse">
<stop stop-color="#00B0ED" stop-opacity="0"/>
<stop offset="1" stop-color="#00A2CE"/>
</linearGradient>
<linearGradient id="paint2_linear" x1="12" y1="18.7552" x2="12" y2="21.5888" gradientUnits="userSpaceOnUse">
<stop stop-color="#00B0ED" stop-opacity="0"/>
<stop offset="1" stop-color="#00A2CE"/>
</linearGradient>
<linearGradient id="paint3_linear" x1="22.9416" y1="20.6426" x2="12.4331" y2="8.98113" gradientUnits="userSpaceOnUse">
<stop stop-color="#00B0ED" stop-opacity="0"/>
<stop offset="1" stop-color="#00A2CE"/>
</linearGradient>
</defs>
</svg>
