<svg width="34" height="22" viewBox="0 0 34 22" fill="none" xmlns="http://www.w3.org/2000/svg">
<path d="M33.2995 3.66468C32.9075 2.34151 31.7592 1.29853 30.3029 0.942228C27.6423 0.280762 16.9997 0.280762 16.9997 0.280762C16.9997 0.280762 6.35733 0.280762 3.69669 0.917014C2.26844 1.27308 1.09207 2.34175 0.700116 3.66468C0 6.0815 0 11.0938 0 11.0938C0 11.0938 0 16.1312 0.700116 18.5228C1.09233 19.8458 2.24042 20.889 3.69695 21.2453C6.38535 21.9067 16.9999 21.9067 16.9999 21.9067C16.9999 21.9067 27.6423 21.9067 30.3029 21.2705C31.7594 20.9144 32.9075 19.8712 33.2997 18.5483C33.9999 16.1312 33.9999 11.1192 33.9999 11.1192C33.9999 11.1192 34.0279 6.0815 33.2995 3.66468Z" fill="#FF0000"/>
<path d="M13.6112 15.7241L22.4611 11.0936L13.6112 6.46313V15.7241Z" fill="white"/>
</svg>
