<svg width="36" height="42" viewBox="0 0 36 42" fill="none" xmlns="http://www.w3.org/2000/svg">
<path d="M6 3.91599C5.46957 3.91599 4.96086 4.12228 4.58579 4.48948C4.21071 4.85667 4 5.3547 4 5.87399V11.748H32V5.87399C32 5.3547 31.7893 4.85667 31.4142 4.48948C31.0391 4.12228 30.5304 3.91599 30 3.91599H6ZM6 0H30C31.5913 0 33.1174 0.618865 34.2426 1.72045C35.3679 2.82204 36 4.31611 36 5.87399V35.2439C36 36.8018 35.3679 38.2959 34.2426 39.3975C33.1174 40.4991 31.5913 41.1179 30 41.1179H6C4.4087 41.1179 2.88258 40.4991 1.75736 39.3975C0.632141 38.2959 0 36.8018 0 35.2439V5.87399C0 4.31611 0.632141 2.82204 1.75736 1.72045C2.88258 0.618865 4.4087 0 6 0ZM18 38.1809C20.3734 38.1809 22.6935 37.4919 24.6668 36.201C26.6402 34.9101 28.1783 33.0754 29.0866 30.9287C29.9948 28.782 30.2324 26.4199 29.7694 24.141C29.3064 21.8621 28.1635 19.7689 26.4853 18.1259C24.8071 16.4829 22.6689 15.364 20.3411 14.9107C18.0133 14.4574 15.6005 14.6901 13.4078 15.5792C11.2151 16.4684 9.34094 17.9742 8.02236 19.9061C6.70379 21.8381 6 24.1094 6 26.4329C6 29.5487 7.26428 32.5368 9.51472 34.74C11.7652 36.9432 14.8174 38.1809 18 38.1809ZM8 9.78998C8.39556 9.78998 8.78224 9.67515 9.11114 9.46C9.44004 9.24485 9.69638 8.93905 9.84776 8.58128C9.99913 8.2235 10.0387 7.82981 9.96157 7.45C9.8844 7.07018 9.69392 6.7213 9.41421 6.44747C9.13451 6.17364 8.77814 5.98716 8.39018 5.91161C8.00222 5.83606 7.60009 5.87484 7.23463 6.02303C6.86918 6.17123 6.55682 6.42219 6.33706 6.74418C6.1173 7.06617 6 7.44473 6 7.83198C6 8.35128 6.21071 8.8493 6.58579 9.2165C6.96086 9.58369 7.46957 9.78998 8 9.78998ZM14 9.78998C14.3956 9.78998 14.7822 9.67515 15.1111 9.46C15.44 9.24485 15.6964 8.93905 15.8478 8.58128C15.9991 8.2235 16.0387 7.82981 15.9616 7.45C15.8844 7.07018 15.6939 6.7213 15.4142 6.44747C15.1345 6.17364 14.7781 5.98716 14.3902 5.91161C14.0022 5.83606 13.6001 5.87484 13.2346 6.02303C12.8692 6.17123 12.5568 6.42219 12.3371 6.74418C12.1173 7.06617 12 7.44473 12 7.83198C12 8.35128 12.2107 8.8493 12.5858 9.2165C12.9609 9.58369 13.4696 9.78998 14 9.78998Z" fill="#34445C"/>
<path opacity="0.3" fill-rule="evenodd" clip-rule="evenodd" d="M18 34.2649C19.5822 34.2649 21.129 33.8056 22.4446 32.945C23.7602 32.0844 24.7855 30.8612 25.391 29.4301C25.9965 27.999 26.155 26.4242 25.8463 24.905C25.5376 23.3857 24.7757 21.9902 23.6569 20.8949C22.538 19.7996 21.1126 19.0536 19.5607 18.7514C18.0089 18.4492 16.4003 18.6043 14.9385 19.1971C13.4767 19.7899 12.2273 20.7938 11.3482 22.0817C10.4692 23.3697 10 24.8839 10 26.4329C10 28.5101 10.8429 30.5022 12.3431 31.971C13.8434 33.4397 15.8783 34.2649 18 34.2649Z" fill="#34445C"/>
</svg>
